<svg width="56" height="56" viewBox="0 0 56 56" fill="none" xmlns="http://www.w3.org/2000/svg">
<path d="M28 56C43.464 56 56 43.464 56 28C56 12.536 43.464 0 28 0C12.536 0 0 12.536 0 28C0 43.464 12.536 56 28 56Z" fill="#589BFF" fill-opacity="0.2"/>
<path d="M39.56 30.1235C42.2712 30.1235 44.4691 27.9177 44.4691 25.1968C44.4691 22.4758 42.2712 20.27 39.56 20.27C36.8488 20.27 34.6509 22.4758 34.6509 25.1968C34.6509 27.9177 36.8488 30.1235 39.56 30.1235Z" fill="white" stroke="#589BFF" stroke-miterlimit="10"/>
<path d="M39.56 39.272C42.123 39.272 44.5142 38.932 46.5766 38.3387C47.0399 38.2012 47.3537 37.7309 47.2566 37.2606C46.5766 33.9973 43.4083 31.53 39.56 31.53C35.7117 31.53 32.5508 34.0046 31.8634 37.2606C31.7662 37.7309 32.0801 38.2084 32.5434 38.3387C34.5983 38.932 36.9969 39.272 39.56 39.272Z" fill="white" stroke="#589BFF" stroke-miterlimit="10"/>
<path d="M15.7148 30.1235C18.426 30.1235 20.6238 27.9177 20.6238 25.1968C20.6238 22.4758 18.426 20.27 15.7148 20.27C13.0035 20.27 10.8057 22.4758 10.8057 25.1968C10.8057 27.9177 13.0035 30.1235 15.7148 30.1235Z" fill="white" stroke="#589BFF" stroke-miterlimit="10"/>
<path d="M15.7148 39.272C13.1517 39.272 10.7606 38.932 8.69816 38.3387C8.23487 38.2012 7.92103 37.7309 8.01817 37.2606C8.69816 33.9973 11.8665 31.53 15.7148 31.53C19.5556 31.53 22.7239 34.0046 23.4114 37.2606C23.5085 37.7309 23.1947 38.2084 22.7314 38.3387C20.6765 38.932 18.2778 39.272 15.7148 39.272Z" fill="white" stroke="#589BFF" stroke-miterlimit="10"/>
<path d="M27.6366 27.3076C30.3478 27.3076 32.5457 25.1018 32.5457 22.3808C32.5457 19.6599 30.3478 17.4541 27.6366 17.4541C24.9254 17.4541 22.7275 19.6599 22.7275 22.3808C22.7275 25.1018 24.9254 27.3076 27.6366 27.3076Z" fill="#93BEFF" stroke="#589BFF" stroke-miterlimit="10"/>
<path d="M27.6589 28.7141C24.4845 28.7141 21.7843 30.4852 20.624 33.0008C21.777 33.7742 22.6819 34.8296 23.222 36.0658C24.6158 36.3115 26.0972 36.4561 27.6589 36.4561C29.2206 36.4561 30.5706 36.3188 31.9134 36.0947C32.468 34.8007 33.4313 33.6947 34.65 32.914C33.4678 30.4418 30.7969 28.7141 27.6589 28.7141Z" fill="#93BEFF" stroke="#589BFF" stroke-miterlimit="10"/>
</svg>
