<svg width="21" height="20" viewBox="0 0 21 20" fill="none" xmlns="http://www.w3.org/2000/svg">
<path d="M4.95651 16.2506V15.0006H6.23359L7.83943 9.61768C7.93457 9.28852 8.11672 9.02699 8.38588 8.8331C8.65519 8.63921 8.95436 8.54227 9.28339 8.54227H11.7192C12.0482 8.54227 12.3474 8.63921 12.6167 8.8331C12.8859 9.02699 13.068 9.28852 13.1632 9.61768L14.769 15.0006H16.0461V16.2506H4.95651ZM7.55089 15.0006H13.4517L11.9596 9.97664C11.9437 9.91775 11.913 9.87234 11.8676 9.84039C11.8221 9.80831 11.7701 9.79227 11.7113 9.79227H9.2913C9.23255 9.79227 9.18047 9.80831 9.13505 9.84039C9.08964 9.87234 9.05894 9.91775 9.04297 9.97664L7.55089 15.0006ZM9.8763 6.61914V2.86914H11.1263V6.61914H9.8763ZM14.6263 8.59352L13.7353 7.70247L16.3971 5.06143L17.2673 5.93164L14.6263 8.59352ZM15.7096 12.4525V11.2025H19.4596V12.4525H15.7096ZM6.3763 8.59352L3.73526 5.93164L4.60547 5.06143L7.26734 7.70247L6.3763 8.59352ZM1.54297 12.4525V11.2025H5.29297V12.4525H1.54297Z" fill="#777F90"/>
</svg>
