<svg width="20" height="21" viewBox="0 0 20 21" fill="none" xmlns="http://www.w3.org/2000/svg">
<path d="M6.08979 17.5831C5.67424 17.5831 5.31924 17.436 5.02479 17.1417C4.73049 16.8472 4.58333 16.4922 4.58333 16.0767V5.49978H3.75V4.24978H7.5V3.5127H12.5V4.24978H16.25V5.49978H15.4167V16.0767C15.4167 16.4976 15.2708 16.8539 14.9792 17.1456C14.6875 17.4373 14.3312 17.5831 13.9102 17.5831H6.08979ZM14.1667 5.49978H5.83333V16.0767C5.83333 16.1515 5.85736 16.213 5.90542 16.261C5.95347 16.3091 6.01493 16.3331 6.08979 16.3331H13.9102C13.9744 16.3331 14.0331 16.3064 14.0865 16.2529C14.1399 16.1996 14.1667 16.1408 14.1667 16.0767V5.49978ZM7.83667 14.6664H9.08646V7.16645H7.83667V14.6664ZM10.9135 14.6664H12.1633V7.16645H10.9135V14.6664Z" fill="#777F90"/>
</svg>
