<svg width="40" height="40" viewBox="0 0 40 40" fill="none" xmlns="http://www.w3.org/2000/svg">
<g clip-path="url(#clip0_1596_46828)">
<path d="M28.3927 1.73978C27.4496 1.33383 26.1173 1.5658 24.7252 2.2907C23.9318 2.69665 22.9139 2.43569 22.4648 1.75427C21.7463 0.666914 20.7883 0 19.7255 0C18.6626 0 17.7046 0.666914 16.9861 1.75427C16.537 2.43569 15.5191 2.69665 14.7257 2.2907C13.3336 1.5803 12.0163 1.33383 11.0582 1.73978C9.12721 2.58067 9.48648 5.78475 11.8816 8.90185C14.2766 12.0189 17.7794 13.8602 19.7255 13.0193C21.6565 13.8602 25.1743 12.0189 27.5693 8.90185C29.9644 5.78475 30.3387 2.58067 28.3927 1.73978Z" fill="#FFD15F"/>
<path d="M38.0646 29.8448C38.0646 39.7682 29.9846 40 20.0001 40C10.0156 40 1.93555 39.7682 1.93555 29.8448C1.93555 19.9214 10.0156 9.375 20.0001 9.375C29.9846 9.375 38.0646 19.9214 38.0646 29.8448Z" fill="#FFD15F"/>
<path d="M26.7279 10.9375C26.7279 10.9375 23.8837 12.1553 19.7822 12.1988C15.6806 12.1553 12.8364 10.9375 12.8364 10.9375" stroke="#E87915" stroke-width="2.58065" stroke-miterlimit="10" stroke-linecap="round"/>
<path d="M17.1211 28.8187C17.1211 28.8187 18.633 30.0511 20.07 30.0511C22.7346 30.0511 22.8393 27.7314 22.8393 27.7314C22.8393 27.7314 23.1537 25.3247 20.3395 25.3247H19.6359C16.8217 25.3247 17.1361 22.918 17.1361 22.918C17.1361 22.918 17.3157 20.3953 19.9054 20.5983C21.4322 20.7143 22.8543 21.8306 22.8543 21.8306" stroke="white" stroke-width="1.93548" stroke-miterlimit="10" stroke-linecap="round"/>
<path d="M19.9043 20.5977V18.4375" stroke="white" stroke-width="1.93548" stroke-miterlimit="10" stroke-linecap="round"/>
<path d="M19.998 32.2244V30.0642" stroke="white" stroke-width="1.93548" stroke-miterlimit="10" stroke-linecap="round"/>
</g>
<defs>
<clipPath id="clip0_1596_46828">
<rect width="40" height="40" fill="white"/>
</clipPath>
</defs>
</svg>
