<svg width="56" height="56" viewBox="0 0 56 56" fill="none" xmlns="http://www.w3.org/2000/svg">
<g id="Group 1437257417">
<path id="Vector" d="M28 56C43.464 56 56 43.464 56 28C56 12.536 43.464 0 28 0C12.536 0 0 12.536 0 28C0 43.464 12.536 56 28 56Z" fill="#589BFF" fill-opacity="0.2"/>
<g id="Group">
<path id="Vector_2" d="M19.0923 28.2854H28.5333" stroke="#589BFF" stroke-miterlimit="10"/>
<path id="Vector_3" d="M28.4691 39.6917H19.0923V16.8792" stroke="#589BFF" stroke-miterlimit="10"/>
<path id="Vector_4" d="M18.9093 24.0002C21.7209 24.0002 24.0002 21.7209 24.0002 18.9093C24.0002 16.0976 21.7209 13.8184 18.9093 13.8184C16.0976 13.8184 13.8184 16.0976 13.8184 18.9093C13.8184 21.7209 16.0976 24.0002 18.9093 24.0002Z" fill="white" stroke="#589BFF" stroke-miterlimit="10"/>
<path id="Vector_5" d="M41.781 24.9133H28.3902C28.1685 24.9133 27.9888 25.0916 27.9888 25.3116V31.0944C27.9888 31.3143 28.1685 31.4926 28.3902 31.4926H41.781C42.0027 31.4926 42.1824 31.3143 42.1824 31.0944V25.3116C42.1824 25.0916 42.0027 24.9133 41.781 24.9133Z" fill="#93BEFF" stroke="#589BFF" stroke-miterlimit="10"/>
<path id="Vector_6" d="M41.781 36.3293H28.3902C28.1685 36.3293 27.9888 36.5077 27.9888 36.7276V42.5104C27.9888 42.7303 28.1685 42.9087 28.3902 42.9087H41.781C42.0027 42.9087 42.1824 42.7303 42.1824 42.5104V36.7276C42.1824 36.5077 42.0027 36.3293 41.781 36.3293Z" fill="#93BEFF" stroke="#589BFF" stroke-miterlimit="10"/>
</g>
</g>
</svg>
