<svg width="20" height="20" viewBox="0 0 20 20" fill="none" xmlns="http://www.w3.org/2000/svg">
<path d="M9.48725 16.25C9.2778 16.25 9.10259 16.1794 8.96162 16.0383C8.82051 15.8974 8.74995 15.7222 8.74995 15.5127V10.6892L4.08495 4.76292C3.92468 4.54917 3.90141 4.32694 4.01516 4.09625C4.12905 3.86542 4.32114 3.75 4.59141 3.75H15.4085C15.6788 3.75 15.8709 3.86542 15.9847 4.09625C16.0985 4.32694 16.0752 4.54917 15.915 4.76292L11.25 10.6892V15.5127C11.25 15.7222 11.1794 15.8974 11.0383 16.0383C10.8973 16.1794 10.7221 16.25 10.5127 16.25H9.48725ZM9.99995 10.25L14.125 5H5.87495L9.99995 10.25Z" fill="#777F90"/>
</svg>
