<svg width="28" height="28" viewBox="0 0 28 28" fill="none" xmlns="http://www.w3.org/2000/svg">
<path d="M5.25 22.032V20.2823H7.35904V11.5769C7.35904 10.0079 7.84331 8.62068 8.81183 7.41512C9.78017 6.20957 11.0234 5.4385 12.5417 5.10191V4.37508C12.5417 3.97005 12.6833 3.62569 12.9666 3.342C13.2499 3.0585 13.5939 2.91675 13.9985 2.91675C14.4034 2.91675 14.7478 3.0585 15.0319 3.342C15.3162 3.62569 15.4583 3.97005 15.4583 4.37508V5.10191C16.9766 5.4385 18.2198 6.20957 19.1882 7.41512C20.1567 8.62068 20.641 10.0079 20.641 11.5769V20.2823H22.75V22.032H5.25ZM13.998 25.3077C13.4175 25.3077 12.9213 25.1012 12.5093 24.6882C12.0971 24.2752 11.891 23.7787 11.891 23.1987H16.109C16.109 23.7806 15.9023 24.2776 15.489 24.6897C15.0756 25.1017 14.5786 25.3077 13.998 25.3077ZM9.10904 20.2823H18.891V11.5769C18.891 10.2263 18.4135 9.07354 17.4586 8.11862C16.5035 7.16351 15.3506 6.68596 14 6.68596C12.6494 6.68596 11.4965 7.16351 10.5414 8.11862C9.5865 9.07354 9.10904 10.2263 9.10904 11.5769V20.2823Z" fill="#589BFF"/>
</svg>
