<svg width="20" height="20" viewBox="0 0 20 20" fill="none" xmlns="http://www.w3.org/2000/svg">
<path d="M10.0002 13.7499C11.0407 13.7499 11.9259 13.3851 12.6556 12.6553C13.3853 11.9256 13.7502 11.0405 13.7502 9.99992C13.7502 8.95936 13.3853 8.07422 12.6556 7.3445C11.9259 6.61478 11.0407 6.24992 10.0002 6.24992C8.95961 6.24992 8.07447 6.61478 7.34475 7.3445C6.61502 8.07422 6.25016 8.95936 6.25016 9.99992C6.25016 11.0405 6.61502 11.9256 7.34475 12.6553C8.07447 13.3851 8.95961 13.7499 10.0002 13.7499ZM10.0016 17.9166C8.90662 17.9166 7.87738 17.7088 6.91391 17.2933C5.95044 16.8777 5.11238 16.3137 4.39975 15.6014C3.68711 14.889 3.12287 14.0513 2.70704 13.0883C2.29134 12.1252 2.0835 11.0962 2.0835 10.0014C2.0835 8.90638 2.29127 7.87714 2.70683 6.91367C3.12238 5.9502 3.68634 5.11214 4.3987 4.3995C5.11107 3.68686 5.94877 3.12263 6.91183 2.70679C7.87489 2.2911 8.90384 2.08325 9.9987 2.08325C11.0937 2.08325 12.1229 2.29103 13.0864 2.70658C14.0499 3.12214 14.8879 3.6861 15.6006 4.39846C16.3132 5.11082 16.8775 5.94853 17.2933 6.91159C17.709 7.87464 17.9168 8.9036 17.9168 9.99846C17.9168 11.0935 17.7091 12.1227 17.2935 13.0862C16.8779 14.0496 16.314 14.8877 15.6016 15.6003C14.8893 16.313 14.0516 16.8772 13.0885 17.293C12.1254 17.7087 11.0965 17.9166 10.0016 17.9166ZM10.0002 16.6666C11.8613 16.6666 13.4377 16.0208 14.7293 14.7291C16.021 13.4374 16.6668 11.861 16.6668 9.99992C16.6668 8.13881 16.021 6.56242 14.7293 5.27075C13.4377 3.97909 11.8613 3.33325 10.0002 3.33325C8.13905 3.33325 6.56266 3.97909 5.271 5.27075C3.97933 6.56242 3.3335 8.13881 3.3335 9.99992C3.3335 11.861 3.97933 13.4374 5.271 14.7291C6.56266 16.0208 8.13905 16.6666 10.0002 16.6666Z" fill="#589BFF"/>
</svg>
