<svg width="56" height="56" viewBox="0 0 56 56" fill="none" xmlns="http://www.w3.org/2000/svg">
<g id="Group 1437257418">
<path id="Vector" d="M28 56C43.464 56 56 43.464 56 28C56 12.536 43.464 0 28 0C12.536 0 0 12.536 0 28C0 43.464 12.536 56 28 56Z" fill="#589BFF" fill-opacity="0.2"/>
<g id="Group 1437257414">
<path id="Vector_2" d="M28.3636 43.6378C35.1919 43.6378 40.7273 41.5771 40.7273 39.0352C40.7273 36.4933 35.1919 34.4326 28.3636 34.4326C21.5354 34.4326 16 36.4933 16 39.0352C16 41.5771 21.5354 43.6378 28.3636 43.6378Z" fill="#93BEFF" stroke="#589BFF" stroke-miterlimit="10"/>
<path id="Vector_3" d="M28.362 13.0916C34.0552 13.1982 37.9234 19.1545 35.6703 24.3232C33.5949 29.0899 30.3889 34.1191 28.7254 37.5731C28.58 37.8766 28.152 37.8766 28.0066 37.5731C26.3431 34.1191 23.1371 29.0899 21.0617 24.3232C18.8086 19.1545 22.6687 13.1982 28.37 13.0916H28.362Z" fill="white" stroke="#589BFF" stroke-miterlimit="10"/>
<path id="Vector_4" d="M28.2544 25.6575C30.9098 25.6575 33.0625 23.4818 33.0625 20.798C33.0625 18.1141 30.9098 15.9385 28.2544 15.9385C25.5989 15.9385 23.4463 18.1141 23.4463 20.798C23.4463 23.4818 25.5989 25.6575 28.2544 25.6575Z" fill="#93BEFF" stroke="#589BFF" stroke-miterlimit="10"/>
</g>
</g>
</svg>
