<svg width="19" height="14" viewBox="0 0 19 14" fill="none" xmlns="http://www.w3.org/2000/svg">
<path d="M12.5751 0.190952H6.42491C3.15833 0.190952 0.5 2.83801 0.5 6.11585C0.5 7.87305 1.27722 9.43876 2.505 10.5201L2.26845 13.8205L6.4587 12.0295H12.5751C15.8417 12.0295 18.5 9.38243 18.5 6.10459C18.5 2.82674 15.8529 0.179688 12.5751 0.179688V0.190952Z" fill="white"/>
<path d="M5.89672 7.01741C6.46905 7.01741 6.933 6.55345 6.933 5.98112C6.933 5.40879 6.46905 4.94482 5.89672 4.94482C5.32439 4.94482 4.86041 5.40879 4.86041 5.98112C4.86041 6.55345 5.32439 7.01741 5.89672 7.01741Z" fill="#7DA2FF"/>
<path d="M9.50033 7.01741C10.0727 7.01741 10.5366 6.55345 10.5366 5.98112C10.5366 5.40879 10.0727 4.94482 9.50033 4.94482C8.928 4.94482 8.46405 5.40879 8.46405 5.98112C8.46405 6.55345 8.928 7.01741 9.50033 7.01741Z" fill="#7DA2FF"/>
<path d="M13.0952 7.01741C13.6675 7.01741 14.1315 6.55345 14.1315 5.98112C14.1315 5.40879 13.6675 4.94482 13.0952 4.94482C12.5228 4.94482 12.0589 5.40879 12.0589 5.98112C12.0589 6.55345 12.5228 7.01741 13.0952 7.01741Z" fill="#7DA2FF"/>
</svg>
