<svg width="56" height="56" viewBox="0 0 56 56" fill="none" xmlns="http://www.w3.org/2000/svg">
<g id="Group 1437257419">
<path id="Vector" d="M28 56C43.464 56 56 43.464 56 28C56 12.536 43.464 0 28 0C12.536 0 0 12.536 0 28C0 43.464 12.536 56 28 56Z" fill="#589BFF" fill-opacity="0.2"/>
<g id="Group 1437257415">
<path id="Vector_2" d="M26.7802 28.8326C30.5272 28.8326 33.5647 25.7971 33.5647 22.0527C33.5647 18.3082 30.5272 15.2727 26.7802 15.2727C23.0332 15.2727 19.9956 18.3082 19.9956 22.0527C19.9956 25.7971 23.0332 28.8326 26.7802 28.8326Z" fill="white" stroke="#589BFF" stroke-miterlimit="10"/>
<path id="Vector_3" d="M26.7814 41.4548C30.3612 41.4548 33.7046 40.9613 36.575 40.1118C37.2273 39.9176 37.6595 39.2461 37.5209 38.5664C36.5668 33.8981 32.1471 30.3625 26.7732 30.3625C21.3994 30.3625 16.9797 33.8981 16.0256 38.5664C15.887 39.238 16.3273 39.9176 16.9715 40.1118C19.8419 40.9613 23.1852 41.4548 26.7651 41.4548H26.7814Z" fill="white" stroke="#589BFF" stroke-miterlimit="10"/>
<g id="Group">
<path id="Vector_4" d="M32.7096 27.1557C35.0965 27.1557 37.0315 25.2358 37.0315 22.8676C37.0315 20.4994 35.0965 18.5796 32.7096 18.5796C30.3227 18.5796 28.3877 20.4994 28.3877 22.8676C28.3877 25.2358 30.3227 27.1557 32.7096 27.1557Z" fill="white" stroke="#589BFF" stroke-miterlimit="10"/>
<path id="Vector_5" d="M35.769 25.9021L40.727 30.8212" stroke="#589BFF" stroke-miterlimit="10"/>
</g>
<path id="Vector_6" d="M33.5664 22.0522C33.5664 20.79 33.2157 19.6088 32.6123 18.5894C31.5359 18.6136 30.4758 19.0262 29.6522 19.8353C27.9642 21.5101 27.9642 24.2285 29.6522 25.9033C30.1741 26.4211 30.802 26.7609 31.4625 26.9551C32.7591 25.7172 33.5745 23.9777 33.5745 22.0522H33.5664Z" fill="#93BEFF" stroke="#589BFF" stroke-miterlimit="10"/>
</g>
</g>
</svg>
