<svg width="36" height="36" viewBox="0 0 36 36" fill="none" xmlns="http://www.w3.org/2000/svg">
<path d="M5.24902 30.7503V26.4445L25.8924 5.80038C26.0716 5.63788 26.2771 5.50813 26.5089 5.41113C26.7409 5.31413 26.9835 5.26562 27.2368 5.26562C27.4798 5.26562 27.7169 5.31138 27.9481 5.40288C28.1794 5.49413 28.3903 5.62913 28.5808 5.80788L30.2143 7.44925C30.4035 7.63325 30.5399 7.84288 30.6234 8.07812C30.7071 8.31363 30.749 8.549 30.749 8.78425C30.749 9.02825 30.7026 9.26875 30.6099 9.50575C30.5171 9.7425 30.3853 9.95063 30.2143 10.1301L9.55477 30.7503H5.24902ZM26.9713 10.6435L28.8489 8.78013L27.2443 7.16575L25.3712 9.04338L26.9713 10.6435Z" fill="white"/>
</svg>
