<svg width="53" height="42" viewBox="0 0 53 42" fill="none" xmlns="http://www.w3.org/2000/svg">
<path d="M34.3336 30.6601C36.0733 30.6601 37.4836 29.2498 37.4836 27.5101C37.4836 25.7704 36.0733 24.3601 34.3336 24.3601C32.5939 24.3601 31.1836 25.7704 31.1836 27.5101C31.1836 29.2498 32.5939 30.6601 34.3336 30.6601Z" fill="#589BFF"/>
<path d="M33.226 27.3841C33.6609 27.3841 34.0135 27.0315 34.0135 26.5966C34.0135 26.1617 33.6609 25.8091 33.226 25.8091C32.7911 25.8091 32.4385 26.1617 32.4385 26.5966C32.4385 27.0315 32.7911 27.3841 33.226 27.3841Z" fill="white"/>
<path d="M18.2105 30.6601C19.9502 30.6601 21.3605 29.2498 21.3605 27.5101C21.3605 25.7704 19.9502 24.3601 18.2105 24.3601C16.4708 24.3601 15.0605 25.7704 15.0605 27.5101C15.0605 29.2498 16.4708 30.6601 18.2105 30.6601Z" fill="#589BFF"/>
<path d="M17.1029 27.3841C17.5379 27.3841 17.8904 27.0315 17.8904 26.5966C17.8904 26.1617 17.5379 25.8091 17.1029 25.8091C16.668 25.8091 16.3154 26.1617 16.3154 26.5966C16.3154 27.0315 16.668 27.3841 17.1029 27.3841Z" fill="white"/>
<path d="M26.2498 30.7124C24.9373 30.7124 23.8453 31.6522 23.63 32.8912C23.588 33.1274 23.7718 33.3374 23.9975 33.3374H28.502C28.7278 33.3374 28.9115 33.1222 28.8695 32.8912C28.6543 31.6522 27.5623 30.7124 26.2498 30.7124Z" fill="#589BFF"/>
<path d="M52.5 26.586C52.5 11.9017 40.7452 0 26.25 0C11.7547 0 0 11.9017 0 26.586C0 32.3347 1.806 37.6477 4.86675 42C4.8405 41.4487 4.8195 40.8922 4.8195 40.3305C4.8195 25.8142 14.3693 14.0385 26.166 13.986C25.6358 12.7155 25.8353 10.626 26.4653 8.95125C27.342 6.63075 28.7858 5.79599 30.366 6.40499C31.9463 7.01399 32.4712 8.61525 31.5945 10.9357C31.4842 11.2297 31.353 11.5237 31.2113 11.8125C32.529 11.0827 33.5422 11.2665 34.062 12.1958C34.587 13.1355 34.209 14.1277 32.8597 14.8995C32.7285 14.973 32.592 15.0412 32.4555 15.1095C41.265 18.3802 47.6805 28.434 47.6805 40.3305C47.6805 40.8922 47.6595 41.4487 47.6333 42C50.694 37.653 52.5 32.3347 52.5 26.586Z" fill="#589BFF"/>
</svg>
