<svg width="205" height="52" viewBox="0 0 205 52" fill="none" xmlns="http://www.w3.org/2000/svg">
<rect width="205" height="52" fill="#797979"/>
<g id="&#235;&#169;&#148;&#236;&#157;&#184;&#237;&#142;&#152;&#236;&#157;&#180;&#236;&#167;&#128;">
<path d="M-607 -467C-607 -468.105 -606.105 -469 -605 -469H1889C1890.1 -469 1891 -468.105 1891 -467V3171C1891 3172.1 1890.1 3173 1889 3173H-605C-606.104 3173 -607 3172.1 -607 3171V-467Z" fill="#444444"/>
<path d="M-605 -468H1889V-470H-605V-468ZM1890 -467V3171H1892V-467H1890ZM1889 3172H-605V3174H1889V3172ZM-606 3171V-467H-608V3171H-606ZM-605 3172C-605.552 3172 -606 3171.55 -606 3171H-608C-608 3172.66 -606.657 3174 -605 3174V3172ZM1890 3171C1890 3171.55 1889.55 3172 1889 3172V3174C1890.66 3174 1892 3172.66 1892 3171H1890ZM1889 -468C1889.55 -468 1890 -467.552 1890 -467H1892C1892 -468.657 1890.66 -470 1889 -470V-468ZM-605 -470C-606.657 -470 -608 -468.657 -608 -467H-606C-606 -467.552 -605.552 -468 -605 -468V-470Z" fill="white" fill-opacity="0.1"/>
<g id="Slide 16:9 - 86" clip-path="url(#clip0_1_5)">
<rect width="1920" height="2792" transform="translate(-336 -44)" fill="white"/>
<g id="&#235;&#161;&#156;&#234;&#183;&#184;&#236;&#157;&#184; &#236;&#160;&#132;" clip-path="url(#clip1_1_5)">
<rect width="1920" height="183" transform="translate(-336 -44)" fill="white"/>
<rect id="Rectangle 34628055" x="-336" y="-44" width="1920" height="183" fill="white"/>
<g id="&#235;&#161;&#156;&#234;&#179;&#160;">
<g id="Group">
<g id="Group_2">
<g id="Group_3">
<path id="Vector" d="M42.018 37.5211C44.147 37.5211 45.8729 35.7952 45.8729 33.6662C45.8729 31.5372 44.147 29.8113 42.018 29.8113C39.889 29.8113 38.1631 31.5372 38.1631 33.6662C38.1631 35.7952 39.889 37.5211 42.018 37.5211Z" fill="#589BFF"/>
<path id="Vector_2" d="M40.6629 33.5119C41.1952 33.5119 41.6267 33.0805 41.6267 32.5482C41.6267 32.0159 41.1952 31.5845 40.6629 31.5845C40.1307 31.5845 39.6992 32.0159 39.6992 32.5482C39.6992 33.0805 40.1307 33.5119 40.6629 33.5119Z" fill="white"/>
</g>
<g id="Group_4">
<path id="Vector_3" d="M22.2875 37.5214C24.4165 37.5214 26.1425 35.7955 26.1425 33.6664C26.1425 31.5374 24.4165 29.8115 22.2875 29.8115C20.1585 29.8115 18.4326 31.5374 18.4326 33.6664C18.4326 35.7955 20.1585 37.5214 22.2875 37.5214Z" fill="#589BFF"/>
<path id="Vector_4" d="M20.9325 33.5122C21.4647 33.5122 21.8962 33.0807 21.8962 32.5484C21.8962 32.0162 21.4647 31.5847 20.9325 31.5847C20.4002 31.5847 19.9688 32.0162 19.9688 32.5484C19.9688 33.0807 20.4002 33.5122 20.9325 33.5122Z" fill="white"/>
</g>
</g>
<path id="Vector_5" d="M32.1245 37.5854C30.5183 37.5854 29.1819 38.7355 28.9185 40.2518C28.8671 40.5409 29.092 40.7979 29.3682 40.7979H34.8808C35.157 40.7979 35.3819 40.5345 35.3305 40.2518C35.0671 38.7355 33.7307 37.5854 32.1245 37.5854Z" fill="#589BFF"/>
<path id="Vector_6" d="M64.2486 32.5355C64.2486 14.5652 49.8634 0 32.1243 0C14.3853 0 0 14.5652 0 32.5355C0 39.5707 2.21016 46.0727 5.95585 51.3989C5.92373 50.7243 5.89802 50.0433 5.89802 49.3558C5.89802 31.5911 17.5849 17.1801 32.0215 17.1158C31.3726 15.561 31.6168 13.0039 32.3877 10.9544C33.4607 8.1146 35.2275 7.09304 37.1614 7.83833C39.0953 8.58361 39.7378 10.5432 38.6648 13.383C38.5299 13.7428 38.3693 14.1026 38.1958 14.4559C39.8085 13.5629 41.0484 13.7878 41.6845 14.925C42.327 16.075 41.8644 17.2893 40.2132 18.2338C40.0526 18.3237 39.8855 18.4072 39.7185 18.4907C50.4994 22.4934 58.3506 34.7971 58.3506 49.3558C58.3506 50.0433 58.3249 50.7243 58.2928 51.3989C62.0385 46.0791 64.2486 39.5707 64.2486 32.5355Z" fill="#589BFF"/>
</g>
<g id="Ariari">
<path id="Vector_7" d="M200.419 15.9487C199.058 15.9487 197.94 15.5557 197.063 14.7696C196.216 13.9532 195.793 12.9555 195.793 11.7763C195.793 10.5669 196.216 9.5692 197.063 8.7831C197.94 7.96676 199.058 7.55859 200.419 7.55859C201.749 7.55859 202.838 7.96676 203.684 8.7831C204.561 9.5692 204.999 10.5669 204.999 11.7763C204.999 12.9555 204.561 13.9532 203.684 14.7696C202.838 15.5557 201.749 15.9487 200.419 15.9487ZM204.274 18.5791V43.8855H196.519V18.5791H204.274Z" fill="#589BFF"/>
<path id="Vector_8" d="M184.876 22.7967C185.783 21.4059 186.916 20.3175 188.277 19.5314C189.638 18.7151 191.149 18.3069 192.812 18.3069V26.5156H190.681C188.746 26.5156 187.294 26.9389 186.327 27.7854C185.359 28.6018 184.876 30.053 184.876 32.1392V43.8854H177.12V18.579H184.876V22.7967Z" fill="#589BFF"/>
<path id="Vector_9" d="M144.798 31.187C144.798 28.5868 145.281 26.3041 146.249 24.3388C147.247 22.3736 148.592 20.8618 150.285 19.8036C151.978 18.7454 153.868 18.2163 155.954 18.2163C157.738 18.2163 159.295 18.5791 160.625 19.3048C161.986 20.0304 163.029 20.9828 163.755 22.1619V18.5791H171.51V43.8855H163.755V40.3027C162.999 41.4819 161.941 42.4343 160.58 43.1599C159.25 43.8855 157.693 44.2483 155.909 44.2483C153.853 44.2483 151.978 43.7192 150.285 42.661C148.592 41.5726 147.247 40.0457 146.249 38.0805C145.281 36.085 144.798 33.7872 144.798 31.187ZM163.755 31.2323C163.755 29.2973 163.211 27.7705 162.122 26.6518C161.064 25.5331 159.764 24.9738 158.222 24.9738C156.68 24.9738 155.365 25.5331 154.276 26.6518C153.218 27.7402 152.689 29.252 152.689 31.187C152.689 33.122 153.218 34.664 154.276 35.8129C155.365 36.9316 156.68 37.4909 158.222 37.4909C159.764 37.4909 161.064 36.9316 162.122 35.8129C163.211 34.6942 163.755 33.1673 163.755 31.2323Z" fill="#589BFF"/>
<path id="Vector_10" d="M136.864 15.9487C135.504 15.9487 134.385 15.5557 133.508 14.7696C132.662 13.9532 132.238 12.9555 132.238 11.7763C132.238 10.5669 132.662 9.5692 133.508 8.7831C134.385 7.96676 135.504 7.55859 136.864 7.55859C138.195 7.55859 139.283 7.96676 140.13 8.7831C141.006 9.5692 141.445 10.5669 141.445 11.7763C141.445 12.9555 141.006 13.9532 140.13 14.7696C139.283 15.5557 138.195 15.9487 136.864 15.9487ZM140.719 18.5791V43.8855H132.964V18.5791H140.719Z" fill="#589BFF"/>
<path id="Vector_11" d="M121.321 22.7967C122.228 21.4059 123.361 20.3175 124.722 19.5314C126.083 18.7151 127.594 18.3069 129.257 18.3069V26.5156H127.126C125.191 26.5156 123.739 26.9389 122.772 27.7854C121.804 28.6018 121.321 30.053 121.321 32.1392V43.8854H113.565V18.579H121.321V22.7967Z" fill="#589BFF"/>
<path id="Vector_12" d="M99.946 38.2618H88.0638L86.159 43.8854H78.041L89.5604 12.0483H98.5401L110.06 43.8854H101.851L99.946 38.2618ZM97.9505 32.2753L94.0049 20.6199L90.1046 32.2753H97.9505Z" fill="#589BFF"/>
</g>
</g>
</g>
</g>
</g>
<defs>
<clipPath id="clip0_1_5">
<rect width="1920" height="2792" fill="white" transform="translate(-336 -44)"/>
</clipPath>
<clipPath id="clip1_1_5">
<rect width="1920" height="183" fill="white" transform="translate(-336 -44)"/>
</clipPath>
</defs>
</svg>
