<svg width="76" height="76" viewBox="0 0 76 76" fill="none" xmlns="http://www.w3.org/2000/svg">
<circle cx="38" cy="38" r="38" fill="white"/>
<path d="M49.7033 43.8106C52.2226 43.8106 54.2649 41.7954 54.2649 39.3096C54.2649 36.8238 52.2226 34.8086 49.7033 34.8086C47.184 34.8086 45.1417 36.8238 45.1417 39.3096C45.1417 41.7954 47.184 43.8106 49.7033 43.8106Z" fill="#589BFF"/>
<path d="M48.0955 39.1234C48.7226 39.1234 49.2309 38.6218 49.2309 38.0031C49.2309 37.3844 48.7226 36.8828 48.0955 36.8828C47.4685 36.8828 46.9601 37.3844 46.9601 38.0031C46.9601 38.6218 47.4685 39.1234 48.0955 39.1234Z" fill="white"/>
<path d="M26.3633 43.8106C28.8827 43.8106 30.925 41.7954 30.925 39.3096C30.925 36.8238 28.8827 34.8086 26.3633 34.8086C23.844 34.8086 21.8018 36.8238 21.8018 39.3096C21.8018 41.7954 23.844 43.8106 26.3633 43.8106Z" fill="#589BFF"/>
<path d="M24.7555 39.1253C25.3825 39.1253 25.8909 38.6238 25.8909 38.0051C25.8909 37.3863 25.3825 36.8848 24.7555 36.8848C24.1284 36.8848 23.6201 37.3863 23.6201 38.0051C23.6201 38.6238 24.1284 39.1253 24.7555 39.1253Z" fill="white"/>
<path d="M38.0004 43.8779C36.1014 43.8779 34.5239 45.2262 34.2124 46.9909C34.1521 47.328 34.4134 47.6255 34.7449 47.6255H41.2658C41.5874 47.6255 41.8586 47.3181 41.7984 46.9909C41.4869 45.2262 39.9094 43.8779 38.0104 43.8779H38.0004Z" fill="#589BFF"/>
<path d="M76 37.9808C76 17.0026 58.9894 0 38 0C17.0106 0 0 17.0026 0 37.9808C0 46.1897 2.61238 53.7839 7.04337 60C7.00318 59.2069 6.97303 58.4137 6.97303 57.6107C6.97303 36.8705 20.7985 20.0562 37.8794 19.9769C37.1158 18.1626 37.3972 15.1785 38.3115 12.7892C39.5775 9.47786 41.6674 8.27825 43.9582 9.15069C46.2491 10.0231 47.0026 12.3133 45.7366 15.6246C45.5759 16.041 45.385 16.4673 45.184 16.8738C47.0931 15.8328 48.56 16.1005 49.3136 17.419C50.0772 18.7673 49.5246 20.1851 47.5754 21.2855C47.3845 21.3946 47.1936 21.4937 46.9826 21.5829C59.733 26.2525 69.027 40.618 69.027 57.6107C69.027 58.4137 68.9968 59.2069 68.9566 60C73.3876 53.7839 76 46.1897 76 37.9808Z" fill="#589BFF"/>
</svg>
