<svg width="76" height="76" viewBox="0 0 76 76" fill="none" xmlns="http://www.w3.org/2000/svg">
<circle cx="38" cy="38" r="38" fill="white"/>
<path d="M8.32622 55.8726C8.32622 42.1094 17.7652 29.7323 30.523 26.2476C30.523 26.2379 30.5035 26.2183 30.4937 26.2086C28.9124 23.4657 29.3907 20.2153 31.5772 18.9463C32.729 18.2826 34.1248 18.3021 35.4231 18.878C36.2332 17.9702 37.2972 17.4041 38.4685 17.4041C39.6399 17.4041 40.7038 17.9604 41.514 18.878C42.8122 18.3021 44.2081 18.2826 45.3599 18.9463C47.5464 20.2055 48.0344 23.4559 46.4433 26.2086C46.3653 26.3452 46.2774 26.4819 46.1896 26.6088C58.3421 30.5132 67.1955 42.5487 67.1955 55.8824C67.1955 58.6936 66.7953 61.2705 66.0534 63.6229C72.2322 56.8682 76 47.8782 76 38C76 17.0136 58.9864 0 38 0C17.0136 0 0 17.0136 0 38C0 47.4487 3.45543 56.0873 9.16568 62.7347C8.59954 60.6263 8.28718 58.3519 8.28718 55.8921L8.32622 55.8726Z" fill="#E88080"/>
<path d="M44.3835 56.8182C39.9422 58.3605 35.0616 58.3995 30.6301 56.8182C33.2168 50.7175 41.8065 50.737 44.3835 56.8182Z" fill="#E88080"/>
<path d="M30.6294 57.5413H30.6399V57.5308L30.6294 57.5413Z" fill="#E88080"/>
<path d="M44.3834 57.5308L44.3729 57.5413H44.3834V57.5308Z" fill="#E88080"/>
<path d="M30.6294 57.5195L30.6399 57.5301V57.5195H30.6294Z" fill="#E88080"/>
<path d="M44.3834 57.5195H44.3729L44.3834 57.5301V57.5195Z" fill="#E88080"/>
<path d="M30.6387 57.5381C33.2156 63.5997 41.7761 63.6095 44.3725 57.5381C39.9312 59.0706 35.0702 59.1096 30.6387 57.5381Z" fill="#E88080"/>
<path d="M48.8462 50.3445C51.2937 50.3445 53.2777 48.3605 53.2777 45.913C53.2777 43.4655 51.2937 41.4814 48.8462 41.4814C46.3987 41.4814 44.4146 43.4655 44.4146 45.913C44.4146 48.3605 46.3987 50.3445 48.8462 50.3445Z" fill="#E88080"/>
<path d="M47.2933 45.7265C47.9025 45.7265 48.3963 45.2327 48.3963 44.6235C48.3963 44.0143 47.9025 43.5205 47.2933 43.5205C46.6842 43.5205 46.1903 44.0143 46.1903 44.6235C46.1903 45.2327 46.6842 45.7265 47.2933 45.7265Z" fill="white"/>
<path d="M26.1706 50.3445C28.6181 50.3445 30.6022 48.3605 30.6022 45.913C30.6022 43.4655 28.6181 41.4814 26.1706 41.4814C23.7232 41.4814 21.7391 43.4655 21.7391 45.913C21.7391 48.3605 23.7232 50.3445 26.1706 50.3445Z" fill="#E88080"/>
<path d="M24.6085 45.7265C25.2177 45.7265 25.7115 45.2327 25.7115 44.6235C25.7115 44.0143 25.2177 43.5205 24.6085 43.5205C23.9993 43.5205 23.5055 44.0143 23.5055 44.6235C23.5055 45.2327 23.9993 45.7265 24.6085 45.7265Z" fill="white"/>
</svg>
