<svg width="76" height="76" viewBox="0 0 76 76" fill="none" xmlns="http://www.w3.org/2000/svg">
<circle cx="38" cy="38" r="38" fill="white"/>
<path d="M38.0098 0C17.018 0 0 17.018 0 38.0098C0 52.0108 7.57657 64.2446 18.8535 70.835C14.5283 65.4846 11.9507 58.3669 11.9507 50.8196C11.9507 45.9671 13.0149 41.3294 14.9188 37.2482C12.2729 37.9609 9.06064 38.0879 6.04368 34.407C3.99332 31.9075 4.4815 30.1793 5.47739 29.0663C6.39517 28.0509 7.7816 27.5529 9.18756 27.4748C10.6814 27.387 12.6732 27.1917 15.0164 25.0827C16.6958 23.5694 18.9609 23.8525 20.8356 24.5457C20.074 21.2359 20.9137 18.2189 21.2554 17.2133C21.2944 17.0863 21.4702 17.0961 21.519 17.2133C23.0617 21.0894 26.6254 23.1398 28.0899 23.8428C31.1069 22.4759 34.446 21.7143 38 21.7143C41.554 21.7143 44.8833 22.4759 47.9101 23.8428C49.3746 23.1398 52.9481 21.0894 54.481 17.2133C54.5298 17.0863 54.7055 17.0766 54.7446 17.2133C55.0863 18.2189 55.926 21.2359 55.1644 24.5457C57.0391 23.8623 59.3042 23.5791 60.9836 25.0827C63.3268 27.1917 65.3088 27.387 66.8124 27.4748C68.2184 27.5529 69.6048 28.0411 70.5226 29.0663C71.5185 30.1793 72.0067 31.9173 69.9563 34.407C66.9394 38.0879 63.7271 37.9609 61.0812 37.2482C62.9851 41.3392 64.0493 45.9671 64.0493 50.8196C64.0493 58.3669 61.4815 65.4846 57.1465 70.835C68.4234 64.2446 76 52.0108 76 38.0098C76 17.018 58.982 0 37.9902 0H38.0098Z" fill="#8F98D9"/>
<path d="M55.9468 63.0338C55.9468 68.5503 48.3116 73.4028 38.011 73.4028C27.7104 73.4028 20.0753 68.5503 20.0753 63.0338C20.0753 57.5174 27.7104 51.9717 38.011 51.9717C48.3116 51.9717 55.9468 57.5174 55.9468 63.0338Z" fill="#8F98D9"/>
<path d="M32.0059 58.6514C32.0059 58.6514 33.2068 62.4104 38.0008 62.4104C42.8045 62.4104 43.9956 58.6514 43.9956 58.6514" stroke="white" stroke-width="3" stroke-miterlimit="10" stroke-linecap="round"/>
<path d="M49.3457 48.5812C51.7938 48.5812 53.7784 46.5966 53.7784 44.1485C53.7784 41.7004 51.7938 39.7158 49.3457 39.7158C46.8976 39.7158 44.913 41.7004 44.913 44.1485C44.913 46.5966 46.8976 48.5812 49.3457 48.5812Z" fill="#8F98D9"/>
<path d="M47.792 43.9634C48.4013 43.9634 48.8953 43.4695 48.8953 42.8601C48.8953 42.2508 48.4013 41.7568 47.792 41.7568C47.1827 41.7568 46.6887 42.2508 46.6887 42.8601C46.6887 43.4695 47.1827 43.9634 47.792 43.9634Z" fill="white"/>
<path d="M26.6638 48.5812C29.1119 48.5812 31.0965 46.5966 31.0965 44.1485C31.0965 41.7004 29.1119 39.7158 26.6638 39.7158C24.2157 39.7158 22.2311 41.7004 22.2311 44.1485C22.2311 46.5966 24.2157 48.5812 26.6638 48.5812Z" fill="#8F98D9"/>
<path d="M25.1027 43.9634C25.712 43.9634 26.206 43.4695 26.206 42.8601C26.206 42.2508 25.712 41.7568 25.1027 41.7568C24.4933 41.7568 23.9994 42.2508 23.9994 42.8601C23.9994 43.4695 24.4933 43.9634 25.1027 43.9634Z" fill="white"/>
</svg>
