<svg width="76" height="76" viewBox="0 0 76 76" fill="none" xmlns="http://www.w3.org/2000/svg">
<circle cx="38" cy="38" r="38" fill="white"/>
<path d="M50.7285 34.2327C50.7285 34.2327 54.2132 28.5127 60.0211 25.9651C60.6751 25.682 61.5048 25.9651 61.6805 26.5312C62.4125 28.8836 63.3789 36.429 59.6014 41.1436L50.7285 34.2229V34.2327Z" fill="#B0C5F4"/>
<path d="M23.2514 34.2327C23.2514 34.2327 19.7666 28.5127 13.9588 25.9651C13.3048 25.682 12.4751 25.9651 12.2994 26.5312C11.5673 28.8836 10.601 36.429 14.3785 41.1436L23.2514 34.2229V34.2327Z" fill="#B0C5F4"/>
<path d="M10.8739 49.9964C11.4791 47.5073 12.4747 45.1939 13.7632 43.066C9.27305 36.4089 10.5225 27.458 11.4595 24.3345C11.7036 23.5341 12.8163 23.1241 13.7046 23.534C19.288 26.0719 23.2998 30.6011 25.1739 33.0316C25.945 32.6704 26.7357 32.3483 27.5459 32.0555C27.0285 30.2399 26.5112 27.7996 26.0231 24.8713C21.1133 25.7498 20.5081 22.187 25.4277 21.3866C25.662 20.7424 25.2227 19.571 25.2715 18.8975C20.4886 19.9322 19.3465 17.4138 24.598 16.5158C25.7108 16.3303 25.0372 13.4996 25.9548 13.3337C28.2779 12.9237 30.7084 24.5004 30.9232 31.0306C33.1878 30.5035 35.5597 30.2302 38.0098 30.2302C40.4598 30.2302 42.8317 30.5132 45.0963 31.0306C45.3111 24.4906 47.7513 12.9237 50.0647 13.3337C50.9823 13.4996 50.3088 16.3303 51.4215 16.5158C56.6828 17.4138 55.5309 19.9322 50.748 18.8975C50.7968 19.571 50.3576 20.7424 50.5918 21.3866C55.5212 22.187 54.9062 25.7498 49.9964 24.8713C49.5084 27.7996 48.991 30.2399 48.4737 32.0555C48.747 32.1531 49.0301 32.2507 49.3034 32.3581C51.3532 29.83 55.1405 25.8572 60.2358 23.534C61.1241 23.1338 62.2466 23.5341 62.4809 24.3345C63.3496 27.2042 64.4721 35.0034 61.1631 41.4164C63.008 43.9543 64.394 46.8436 65.1554 49.9964C65.9949 53.4616 67.254 56.7999 69.0794 59.8551C73.4328 53.6763 76 46.1408 76 38C76 17.0136 58.9864 0 38 0C17.0136 0 0 17.0136 0 38C0 46.1408 2.56718 53.6666 6.92063 59.8551C8.74596 56.8097 10.0051 53.4616 10.8446 49.9964H10.8739Z" fill="#B0C5F4"/>
<path d="M36.9861 58.645C38.5171 58.645 39.7582 58.138 39.7582 57.5127C39.7582 56.8873 38.5171 56.3804 36.9861 56.3804C35.4551 56.3804 34.2139 56.8873 34.2139 57.5127C34.2139 58.138 35.4551 58.645 36.9861 58.645Z" fill="#B0C5F4"/>
<path d="M48.8462 53.8255C51.2937 53.8255 53.2777 51.8414 53.2777 49.394C53.2777 46.9465 51.2937 44.9624 48.8462 44.9624C46.3987 44.9624 44.4146 46.9465 44.4146 49.394C44.4146 51.8414 46.3987 53.8255 48.8462 53.8255Z" fill="#B0C5F4"/>
<path d="M47.2933 49.2075C47.9025 49.2075 48.3963 48.7136 48.3963 48.1044C48.3963 47.4953 47.9025 47.0015 47.2933 47.0015C46.6842 47.0015 46.1903 47.4953 46.1903 48.1044C46.1903 48.7136 46.6842 49.2075 47.2933 49.2075Z" fill="white"/>
<path d="M26.1706 53.8255C28.6181 53.8255 30.6022 51.8414 30.6022 49.394C30.6022 46.9465 28.6181 44.9624 26.1706 44.9624C23.7232 44.9624 21.7391 46.9465 21.7391 49.394C21.7391 51.8414 23.7232 53.8255 26.1706 53.8255Z" fill="#B0C5F4"/>
<path d="M24.6085 49.2075C25.2177 49.2075 25.7115 48.7136 25.7115 48.1044C25.7115 47.4953 25.2177 47.0015 24.6085 47.0015C23.9993 47.0015 23.5055 47.4953 23.5055 48.1044C23.5055 48.7136 23.9993 49.2075 24.6085 49.2075Z" fill="white"/>
</svg>
