<svg width="76" height="76" viewBox="0 0 76 76" fill="none" xmlns="http://www.w3.org/2000/svg">
<circle cx="38.0002" cy="38" r="38" fill="white"/>
<path d="M38.0099 0C17.0182 0 0.000183105 17.018 0.000183105 38.0098C0.000183105 49.1013 4.75506 59.0894 12.3414 66.0313C10.6816 62.7801 9.75404 59.0016 9.75404 54.7739C9.75404 51.4836 10.3203 48.2811 11.3455 45.2642C7.87942 45.4204 4.9601 44.3659 3.48579 42.0617C0.644582 37.629 4.70625 31.1167 11.902 26.4985C19.1076 21.8803 26.4205 22.2611 29.2617 26.684C29.2715 26.7035 29.2813 26.723 29.291 26.7426C32.0932 25.7467 35.0906 25.1902 38.2052 25.1902C41.3198 25.1902 44.3172 25.7467 47.1194 26.7426C47.1292 26.723 47.1389 26.7035 47.1487 26.684C49.9899 22.2513 57.3126 21.8803 64.5084 26.4985C71.714 31.1167 75.7756 37.629 72.9246 42.0617C71.4503 44.3659 68.531 45.4204 65.0649 45.2642C66.0901 48.2811 66.6564 51.4836 66.6564 54.7739C66.6564 58.6891 65.8655 62.2138 64.4303 65.2991C71.5577 58.3864 76.0002 48.7205 76.0002 38.0098C76.0002 17.018 58.9822 0 37.9904 0H38.0099Z" fill="#7395C4"/>
<path d="M38.2051 58.6507C39.963 58.6507 41.388 57.9688 41.388 57.1276C41.388 56.2864 39.963 55.6045 38.2051 55.6045C36.4472 55.6045 35.0222 56.2864 35.0222 57.1276C35.0222 57.9688 36.4472 58.6507 38.2051 58.6507Z" fill="#7395C4"/>
<path d="M49.3459 53.8351C51.794 53.8351 53.7785 51.8506 53.7785 49.4024C53.7785 46.9543 51.794 44.9697 49.3459 44.9697C46.8978 44.9697 44.9132 46.9543 44.9132 49.4024C44.9132 51.8506 46.8978 53.8351 49.3459 53.8351Z" fill="#7395C4"/>
<path d="M47.7921 49.2173C48.4015 49.2173 48.8954 48.7234 48.8954 48.114C48.8954 47.5047 48.4015 47.0107 47.7921 47.0107C47.1828 47.0107 46.6889 47.5047 46.6889 48.114C46.6889 48.7234 47.1828 49.2173 47.7921 49.2173Z" fill="white"/>
<path d="M26.6642 53.838C29.1123 53.838 31.0968 51.8535 31.0968 49.4054C31.0968 46.9573 29.1123 44.9727 26.6642 44.9727C24.2161 44.9727 22.2315 46.9573 22.2315 49.4054C22.2315 51.8535 24.2161 53.838 26.6642 53.838Z" fill="#7395C4"/>
<path d="M25.103 49.2203C25.7124 49.2203 26.2063 48.7263 26.2063 48.117C26.2063 47.5076 25.7124 47.0137 25.103 47.0137C24.4937 47.0137 23.9997 47.5076 23.9997 48.117C23.9997 48.7263 24.4937 49.2203 25.103 49.2203Z" fill="white"/>
</svg>
