<svg width="76" height="76" viewBox="0 0 76 76" fill="none" xmlns="http://www.w3.org/2000/svg">
<circle cx="38" cy="38" r="38" fill="white"/>
<path d="M42.1354 65.6119C42.8417 65.6119 43.4143 64.9825 43.4143 64.2061C43.4143 63.4297 42.8417 62.8003 42.1354 62.8003C41.4291 62.8003 40.8565 63.4297 40.8565 64.2061C40.8565 64.9825 41.4291 65.6119 42.1354 65.6119Z" fill="#8FDFD0"/>
<path d="M33.8665 65.6119C34.5728 65.6119 35.1453 64.9825 35.1453 64.2061C35.1453 63.4297 34.5728 62.8003 33.8665 62.8003C33.1602 62.8003 32.5876 63.4297 32.5876 64.2061C32.5876 64.9825 33.1602 65.6119 33.8665 65.6119Z" fill="#8FDFD0"/>
<path d="M38.0049 0C17.0158 0 0 17.0158 0 38.0049C0 49.9931 5.55478 60.6731 14.2238 67.6434C11.3536 62.7134 9.68427 56.9243 9.68427 50.8619C9.68427 45.8245 10.846 41.2948 12.8766 37.4191C6.91176 27.7837 10.7972 21.2331 12.652 19.3588C13.0035 18.9975 13.5697 18.8511 14.1066 19.0171C15.1317 19.4564 15.9224 20.3447 16.186 21.4284C17.1915 25.5969 20.0031 27.1198 21.7213 27.6763C23.2344 26.6805 24.8745 25.841 26.5829 25.1478C26.1143 27.4908 24.894 32.5184 22.5511 35.8181C22.3851 36.0426 22.7561 36.2769 23.0197 36.1012L28.5451 33.0553C28.7111 32.948 28.9552 32.9968 29.0235 33.1432C29.6385 34.4221 31.0931 39.1763 28.6818 41.8708C28.5451 42.027 28.7013 42.232 28.9454 42.232C32.3525 42.1832 48.6654 41.1874 52.1603 26.4267C52.8827 26.8172 53.5954 27.2272 54.2787 27.6763C55.9969 27.1198 58.8085 25.5969 59.814 21.4284C60.0776 20.3447 60.8683 19.4661 61.8934 19.0171C62.4303 18.8511 62.9868 18.9975 63.348 19.3588C65.2028 21.2331 69.0882 27.7739 63.1234 37.4191C65.154 41.2948 66.3157 45.8245 66.3157 50.8619C66.3157 56.9146 64.6464 62.7134 61.7762 67.6434C70.4452 60.6828 76 49.9931 76 38.0049C76 17.0158 58.9842 0 37.9951 0H38.0049Z" fill="#8FDFD0"/>
<path d="M48.7734 53.498C51.2212 53.498 53.2055 51.5137 53.2055 49.0659C53.2055 46.6181 51.2212 44.6338 48.7734 44.6338C46.3256 44.6338 44.3413 46.6181 44.3413 49.0659C44.3413 51.5137 46.3256 53.498 48.7734 53.498Z" fill="#8FDFD0"/>
<path d="M47.2109 48.8811C47.8201 48.8811 48.314 48.3872 48.314 47.7779C48.314 47.1687 47.8201 46.6748 47.2109 46.6748C46.6016 46.6748 46.1077 47.1687 46.1077 47.7779C46.1077 48.3872 46.6016 48.8811 47.2109 48.8811Z" fill="white"/>
<path d="M26.097 53.498C28.5448 53.498 30.5291 51.5137 30.5291 49.0659C30.5291 46.6181 28.5448 44.6338 26.097 44.6338C23.6492 44.6338 21.6649 46.6181 21.6649 49.0659C21.6649 51.5137 23.6492 53.498 26.097 53.498Z" fill="#8FDFD0"/>
<path d="M24.5344 48.8811C25.1437 48.8811 25.6376 48.3872 25.6376 47.7779C25.6376 47.1687 25.1437 46.6748 24.5344 46.6748C23.9252 46.6748 23.4313 47.1687 23.4313 47.7779C23.4313 48.3872 23.9252 48.8811 24.5344 48.8811Z" fill="white"/>
</svg>
