<svg width="112" height="124" viewBox="0 0 112 124" fill="none" xmlns="http://www.w3.org/2000/svg">
<path d="M71.3991 58.3974C74.7129 58.3974 77.3993 55.711 77.3993 52.3972C77.3993 49.0834 74.7129 46.397 71.3991 46.397C68.0853 46.397 65.3989 49.0834 65.3989 52.3972C65.3989 55.711 68.0853 58.3974 71.3991 58.3974Z" fill="#589BFF"/>
<path d="M69.2895 52.1568C70.118 52.1568 70.7896 51.4852 70.7896 50.6568C70.7896 49.8283 70.118 49.1567 69.2895 49.1567C68.4611 49.1567 67.7895 49.8283 67.7895 50.6568C67.7895 51.4852 68.4611 52.1568 69.2895 52.1568Z" fill="white"/>
<path d="M40.6872 58.3974C44.001 58.3974 46.6874 55.711 46.6874 52.3972C46.6874 49.0834 44.001 46.397 40.6872 46.397C37.3733 46.397 34.687 49.0834 34.687 52.3972C34.687 55.711 37.3733 58.3974 40.6872 58.3974Z" fill="#589BFF"/>
<path d="M38.5776 52.1568C39.4061 52.1568 40.0777 51.4852 40.0777 50.6568C40.0777 49.8283 39.4061 49.1567 38.5776 49.1567C37.7492 49.1567 37.0776 49.8283 37.0776 50.6568C37.0776 51.4852 37.7492 52.1568 38.5776 52.1568Z" fill="white"/>
<path d="M55.9998 58.502C53.4997 58.502 51.4196 60.292 51.0096 62.6521C50.9296 63.1021 51.2796 63.5021 51.7096 63.5021H60.2899C60.7199 63.5021 61.07 63.0921 60.9899 62.6521C60.5799 60.292 58.4999 58.502 55.9998 58.502Z" fill="#589BFF"/>
<path d="M106.002 50.6416C106.002 22.6707 83.6111 0 56 0C28.389 0 5.99811 22.6707 5.99811 50.6416C5.99811 61.592 9.43824 71.7123 15.2685 80.0026C15.2185 78.9525 15.1785 77.8925 15.1785 76.8225C15.1785 49.1716 33.3692 26.7409 55.84 26.6409C54.83 24.2208 55.21 20.2406 56.41 17.0505C58.0801 12.6304 60.8302 11.0403 63.8403 12.2004C66.8504 13.3604 67.8505 16.4105 66.1804 20.8307C65.9704 21.3907 65.7204 21.9507 65.4504 22.5007C67.9605 21.1107 69.8905 21.4607 70.8806 23.2308C71.8806 25.0208 71.1606 26.9109 68.5905 28.3809C68.3405 28.5209 68.0805 28.6509 67.8205 28.7809C84.6011 35.0111 96.8216 54.1617 96.8216 76.8225C96.8216 77.8925 96.7816 78.9525 96.7316 80.0026C102.562 71.7223 106.002 61.592 106.002 50.6416Z" fill="#589BFF"/>
<path d="M107.461 99.2739C106.272 99.2739 105.295 98.9305 104.529 98.2436C103.789 97.5304 103.419 96.6587 103.419 95.6284C103.419 94.5718 103.789 93.7 104.529 93.0132C105.295 92.3 106.272 91.9434 107.461 91.9434C108.623 91.9434 109.574 92.3 110.314 93.0132C111.08 93.7 111.463 94.5718 111.463 95.6284C111.463 96.6587 111.08 97.5304 110.314 98.2436C109.574 98.9305 108.623 99.2739 107.461 99.2739ZM110.829 101.572V123.683H104.053V101.572H110.829Z" fill="#589BFF"/>
<path d="M93.8785 105.255C94.671 104.04 95.6616 103.089 96.8503 102.402C98.0391 101.689 99.3599 101.332 100.813 101.332V108.504H98.9504C97.2598 108.504 95.9918 108.874 95.1465 109.614C94.3011 110.327 93.8785 111.595 93.8785 113.417V123.68H87.1027V101.57H93.8785V105.255Z" fill="#589BFF"/>
<path d="M58.8634 112.588C58.8634 110.317 59.2861 108.322 60.1314 106.605C61.0031 104.888 62.1787 103.567 63.658 102.643C65.1373 101.718 66.7883 101.256 68.6111 101.256C70.1696 101.256 71.5301 101.573 72.6924 102.207C73.8811 102.841 74.7925 103.673 75.4265 104.703V101.573H82.2023V123.683H75.4265V120.553C74.7661 121.583 73.8415 122.415 72.6528 123.049C71.4905 123.683 70.13 124 68.5714 124C66.7751 124 65.1373 123.538 63.658 122.613C62.1787 121.662 61.0031 120.328 60.1314 118.611C59.2861 116.868 58.8634 114.86 58.8634 112.588ZM75.4265 112.628C75.4265 110.937 74.951 109.603 74 108.626C73.0754 107.649 71.9395 107.16 70.5923 107.16C69.2451 107.16 68.0959 107.649 67.145 108.626C66.2204 109.577 65.7581 110.898 65.7581 112.588C65.7581 114.279 66.2204 115.626 67.145 116.63C68.0959 117.608 69.2451 118.096 70.5923 118.096C71.9395 118.096 73.0754 117.608 74 116.63C74.951 115.653 75.4265 114.319 75.4265 112.628Z" fill="#589BFF"/>
<path d="M51.9315 99.2739C50.7427 99.2739 49.7653 98.9305 48.9993 98.2436C48.2596 97.5304 47.8898 96.6587 47.8898 95.6284C47.8898 94.5718 48.2596 93.7 48.9993 93.0132C49.7653 92.3 50.7427 91.9434 51.9315 91.9434C53.0938 91.9434 54.0448 92.3 54.7845 93.0132C55.5505 93.7 55.9336 94.5718 55.9336 95.6284C55.9336 96.6587 55.5505 97.5304 54.7845 98.2436C54.0448 98.9305 53.0938 99.2739 51.9315 99.2739ZM55.2996 101.572V123.683H48.5238V101.572H55.2996Z" fill="#589BFF"/>
<path d="M38.3511 105.255C39.1436 104.04 40.1342 103.089 41.323 102.402C42.5117 101.689 43.8325 101.332 45.2854 101.332V108.504H43.4231C41.7324 108.504 40.4644 108.874 39.6191 109.614C38.7738 110.327 38.3511 111.595 38.3511 113.417V123.68H31.5753V101.57H38.3511V105.255Z" fill="#589BFF"/>
<path d="M19.6759 118.768H9.29428L7.63004 123.682H0.537231L10.6019 95.8652H18.4476L28.5122 123.682H21.3402L19.6759 118.768ZM17.9325 113.538L14.4851 103.354L11.0774 113.538H17.9325Z" fill="#589BFF"/>
</svg>
