<svg width="76" height="76" viewBox="0 0 76 76" fill="none" xmlns="http://www.w3.org/2000/svg">
<circle cx="38" cy="38" r="38" fill="white"/>
<path d="M35.3957 51.4116H40.5775C41.0459 51.4116 41.2411 51.9943 40.88 52.276L38.2842 54.296C38.1086 54.432 37.8548 54.432 37.6792 54.296L35.0834 52.276C34.7223 51.9943 34.9175 51.4116 35.3859 51.4116H35.3957Z" fill="#CFCFCF"/>
<path d="M48.3945 53.0694C48.3945 53.0694 56.2697 50.5832 63.1593 55.711" stroke="#CFCFCF" stroke-miterlimit="10" stroke-linecap="round"/>
<path d="M48.209 54.4155C48.209 54.4155 53.1176 54.0659 59.1581 57.9021" stroke="#CFCFCF" stroke-miterlimit="10" stroke-linecap="round"/>
<path d="M47.8281 56.1582C47.8281 56.1582 50.5215 56.3136 54.3078 60.8296" stroke="#CFCFCF" stroke-miterlimit="10" stroke-linecap="round"/>
<path d="M27.5773 53.0694C27.5773 53.0694 19.7021 50.5832 12.8125 55.711" stroke="#CFCFCF" stroke-miterlimit="10" stroke-linecap="round"/>
<path d="M27.7714 54.4155C27.7714 54.4155 22.8628 54.0659 16.8223 57.9021" stroke="#CFCFCF" stroke-miterlimit="10" stroke-linecap="round"/>
<path d="M28.1438 56.1582C28.1438 56.1582 25.4504 56.3136 21.6641 60.8296" stroke="#CFCFCF" stroke-miterlimit="10" stroke-linecap="round"/>
<path d="M75.9707 37.9925C75.9707 17.0151 58.9615 0 37.9902 0C17.019 0 0 17.0151 0 37.9925C0 48.4036 4.1962 57.8338 10.9784 64.7C9.12429 61.6991 8.07037 58.0571 8.07037 53.6965C8.07037 46.9954 10.5588 40.8381 14.6184 35.9434C10.5393 34.5351 7.23112 30.5533 7.79712 26.3287C8.45095 21.4534 13.1448 17.6269 17.9266 18.5301C22.0837 19.3071 24.6014 22.4925 26.1823 27.329C29.8516 25.7557 33.8624 24.8719 38 24.8719C42.1376 24.8719 46.1484 25.7557 49.8177 27.329C51.3986 22.4828 53.9065 19.3071 58.0734 18.5301C62.8552 17.6366 67.5491 21.4534 68.2029 26.3287C68.7689 30.5533 65.4607 34.5351 61.3816 35.9434C65.4412 40.8381 67.9296 46.9954 67.9296 53.6965C67.9296 58.0571 66.8757 61.6991 65.0216 64.7C71.8038 57.8338 76 48.4036 76 37.9925H75.9707Z" fill="#CFCFCF"/>
<path d="M49.321 49.1992C51.7679 49.1992 53.7514 47.2251 53.7514 44.79C53.7514 42.3549 51.7679 40.3809 49.321 40.3809C46.8742 40.3809 44.8906 42.3549 44.8906 44.79C44.8906 47.2251 46.8742 49.1992 49.321 49.1992Z" fill="#CFCFCF"/>
<path d="M47.759 44.604C48.368 44.604 48.8617 44.1127 48.8617 43.5066C48.8617 42.9005 48.368 42.4092 47.759 42.4092C47.15 42.4092 46.6562 42.9005 46.6562 43.5066C46.6562 44.1127 47.15 44.604 47.759 44.604Z" fill="white"/>
<path d="M26.6531 49.1992C29.0999 49.1992 31.0835 47.2251 31.0835 44.79C31.0835 42.3549 29.0999 40.3809 26.6531 40.3809C24.2062 40.3809 22.2227 42.3549 22.2227 44.79C22.2227 47.2251 24.2062 49.1992 26.6531 49.1992Z" fill="#CFCFCF"/>
<path d="M25.091 44.604C25.7 44.604 26.1937 44.1127 26.1937 43.5066C26.1937 42.9005 25.7 42.4092 25.091 42.4092C24.482 42.4092 23.9883 42.9005 23.9883 43.5066C23.9883 44.1127 24.482 44.604 25.091 44.604Z" fill="white"/>
</svg>
