<svg width="76" height="76" viewBox="0 0 76 76" fill="none" xmlns="http://www.w3.org/2000/svg">
<path d="M53.9978 31.567C53.9978 31.567 54.9447 25.2125 61.2308 23.4262C61.7775 23.27 62.2948 23.0162 62.7243 22.5965L63.6125 21.7375C63.9444 21.4154 64.4618 21.5716 64.5594 22.0401C64.8132 23.1431 65.1841 24.2071 65.6721 25.193C66.9508 27.7504 68.9421 34.0951 62.656 38.1264L53.9978 31.5767V31.567Z" fill="#F2CCCC"/>
<path d="M21.9913 31.567C21.9913 31.567 21.0445 25.2125 14.7583 23.4262C14.2117 23.27 13.6944 23.0162 13.2649 22.5965L12.3766 21.7375C12.0448 21.4154 11.5274 21.5716 11.4298 22.0401C11.176 23.1431 10.8051 24.2071 10.317 25.193C9.03833 27.7504 7.04707 34.0951 13.3332 38.1264L21.9913 31.5767V31.567Z" fill="#F2CCCC"/>
<circle cx="38" cy="38" r="38" fill="white"/>
<path d="M38.0012 58.5761C42.4702 58.5761 46.0931 56.662 46.0931 54.3008C46.0931 51.9395 42.4702 50.0254 38.0012 50.0254C33.5321 50.0254 29.9092 51.9395 29.9092 54.3008C29.9092 56.662 33.5321 58.5761 38.0012 58.5761Z" fill="#F2CCCC"/>
<path d="M41.269 56.0589C41.8135 56.0589 42.2549 55.2723 42.2549 54.3019C42.2549 53.3316 41.8135 52.5449 41.269 52.5449C40.7246 52.5449 40.2832 53.3316 40.2832 54.3019C40.2832 55.2723 40.7246 56.0589 41.269 56.0589Z" fill="white"/>
<path d="M34.7294 56.0589C35.2739 56.0589 35.7153 55.2723 35.7153 54.3019C35.7153 53.3316 35.2739 52.5449 34.7294 52.5449C34.185 52.5449 33.7436 53.3316 33.7436 54.3019C33.7436 55.2723 34.185 56.0589 34.7294 56.0589Z" fill="white"/>
<path d="M7.5551 53.9106C7.5551 48.4346 9.0095 43.31 11.5376 38.8687C5.24172 33.8027 7.88698 26.6576 9.6147 23.6219C10.3468 22.3334 10.9032 20.9473 11.2936 19.5125C11.4595 18.9073 12.1916 18.6925 12.6602 19.1025L13.8998 20.1957C14.4953 20.7228 15.2371 21.045 16.018 21.2304C19.737 22.1284 22.392 24.4028 24.2368 26.7552C28.3756 24.6566 33.0414 23.4657 38 23.4657C42.9586 23.4657 47.6245 24.6566 51.7632 26.7552C53.608 24.4028 56.2728 22.1284 59.982 21.2304C60.7629 21.045 61.495 20.7228 62.1002 20.1957L63.3398 19.1025C63.8084 18.6925 64.5405 18.917 64.7064 19.5125C65.0968 20.9473 65.6435 22.3334 66.3853 23.6219C68.113 26.6673 70.7583 33.8027 64.4624 38.8687C66.9905 43.31 68.4449 48.4346 68.4449 53.9106C68.4449 57.0342 67.9764 59.8746 67.0979 62.4321C72.6519 55.8238 76 47.3023 76 38C76 17.0136 58.9864 0 38 0C17.0136 0 0 17.0136 0 38C0 47.3023 3.34806 55.8238 8.90213 62.4321C8.02363 59.8746 7.5551 57.0342 7.5551 53.9106Z" fill="#F2CCCC"/>
<path d="M49.3323 49.0657C51.7797 49.0657 53.7638 47.0817 53.7638 44.6342C53.7638 42.1867 51.7797 40.2026 49.3323 40.2026C46.8848 40.2026 44.9007 42.1867 44.9007 44.6342C44.9007 47.0817 46.8848 49.0657 49.3323 49.0657Z" fill="#F2CCCC"/>
<path d="M47.7794 44.4477C48.3886 44.4477 48.8824 43.9539 48.8824 43.3447C48.8824 42.7355 48.3886 42.2417 47.7794 42.2417C47.1702 42.2417 46.6764 42.7355 46.6764 43.3447C46.6764 43.9539 47.1702 44.4477 47.7794 44.4477Z" fill="white"/>
<path d="M26.6576 49.0657C29.1051 49.0657 31.0891 47.0817 31.0891 44.6342C31.0891 42.1867 29.1051 40.2026 26.6576 40.2026C24.2101 40.2026 22.226 42.1867 22.226 44.6342C22.226 47.0817 24.2101 49.0657 26.6576 49.0657Z" fill="#F2CCCC"/>
<path d="M25.1047 44.4477C25.7139 44.4477 26.2077 43.9539 26.2077 43.3447C26.2077 42.7355 25.7139 42.2417 25.1047 42.2417C24.4955 42.2417 24.0017 42.7355 24.0017 43.3447C24.0017 43.9539 24.4955 44.4477 25.1047 44.4477Z" fill="white"/>
</svg>
