<svg width="76" height="76" viewBox="0 0 76 76" fill="none" xmlns="http://www.w3.org/2000/svg">
<circle cx="38" cy="38" r="38" fill="white"/>
<path d="M34.6704 58.0576H41.37C41.8388 58.0576 42.0341 58.6436 41.6727 58.9268L38.323 61.5344C38.1472 61.6711 37.903 61.6711 37.7272 61.5344L34.3775 58.9268C34.0063 58.6436 34.2114 58.0576 34.6802 58.0576H34.6704Z" fill="#FFBBC6"/>
<path d="M64.3401 32.0523C66.8695 25.8703 65.1995 22.1494 62.6701 21.1142C60.1407 20.079 56.3319 21.5537 53.8025 27.7356C51.273 33.9176 52.2204 38.5663 54.7498 39.6015C57.2792 40.6367 61.8107 38.2342 64.3401 32.0523Z" fill="#FFBBC6"/>
<path d="M38.0195 0C17.0224 0 0 17.0224 0 38.0195C0 48.9283 4.59985 58.7628 11.9635 65.6967C11.3775 63.929 11.0553 61.927 11.0553 59.6613C11.0553 53.6551 13.2819 47.9419 16.9052 43.3323C14.0925 40.588 11.2408 36.496 9.44384 32.1208C5.97687 23.6633 8.27191 18.5654 11.7291 17.1493C15.1863 15.7332 20.3917 17.7548 23.8586 26.2123C25.0989 29.2495 25.8802 32.5505 26.222 35.6073C29.8258 33.742 33.8396 32.6774 38 32.6774C42.1604 32.6774 46.1742 33.7517 49.7779 35.6073C50.1198 32.5505 50.9011 29.2495 52.1413 26.2123C55.6083 17.7548 60.8234 15.7332 64.2709 17.1493C67.7281 18.5654 70.0231 23.6633 66.5562 32.1208C64.769 36.496 61.9172 40.5782 59.0948 43.3323C62.7278 47.9419 64.9447 53.6551 64.9447 59.6613C64.9447 61.927 64.6225 63.929 64.0365 65.6967C71.4002 58.7628 76 48.9283 76 38.0195C76 17.0224 58.9776 0 37.9805 0H38.0195Z" fill="#FFBBC6"/>
<path d="M11.7012 32.0523C9.17174 25.8703 10.8417 22.1494 13.3712 21.1142C15.9006 20.079 19.7094 21.5537 22.2388 27.7356C24.7682 33.9176 23.8209 38.5663 21.2915 39.6015C18.7621 40.6367 14.2306 38.2342 11.7012 32.0523Z" fill="#FFBBC6"/>
<path d="M49.3604 54.8174C51.8091 54.8174 53.7942 52.8323 53.7942 50.3835C53.7942 47.9348 51.8091 45.9497 49.3604 45.9497C46.9116 45.9497 44.9266 47.9348 44.9266 50.3835C44.9266 52.8323 46.9116 54.8174 49.3604 54.8174Z" fill="#FFBBC6"/>
<path d="M47.8077 50.1979C48.4172 50.1979 48.9112 49.7038 48.9112 49.0943C48.9112 48.4848 48.4172 47.9907 47.8077 47.9907C47.1982 47.9907 46.7041 48.4848 46.7041 49.0943C46.7041 49.7038 47.1982 50.1979 47.8077 50.1979Z" fill="white"/>
<path d="M26.6743 54.8174C29.123 54.8174 31.1081 52.8323 31.1081 50.3835C31.1081 47.9348 29.123 45.9497 26.6743 45.9497C24.2255 45.9497 22.2404 47.9348 22.2404 50.3835C22.2404 52.8323 24.2255 54.8174 26.6743 54.8174Z" fill="#FFBBC6"/>
<path d="M25.1123 50.1979C25.7218 50.1979 26.2158 49.7038 26.2158 49.0943C26.2158 48.4848 25.7218 47.9907 25.1123 47.9907C24.5028 47.9907 24.0087 48.4848 24.0087 49.0943C24.0087 49.7038 24.5028 50.1979 25.1123 50.1979Z" fill="white"/>
</svg>
