<svg width="76" height="76" viewBox="0 0 76 76" fill="none" xmlns="http://www.w3.org/2000/svg">
<circle cx="38" cy="38" r="38" fill="white"/>
<path d="M54.0379 51.0026C54.0379 51.0026 53.9988 51.0026 53.9891 51.0026C52.1149 51.0026 50.4848 49.4896 49.6454 47.2641C49.0695 47.7716 48.4057 48.084 47.6834 48.084C46.3364 48.084 45.1552 47.0591 44.4817 45.5168C43.7106 46.5906 42.6759 47.2543 41.5241 47.2543C40.1868 47.2543 39.0058 46.3465 38.2249 44.9507C37.4342 46.3465 36.2629 47.2543 34.9256 47.2543C33.5883 47.2543 32.4951 46.4148 31.7142 45.1068C31.0895 46.8638 29.8401 48.084 28.3857 48.084C27.5853 48.084 26.8532 47.7229 26.248 47.1079C25.4573 49.187 23.9248 50.6023 22.1678 50.6023C21.8262 50.6023 21.4943 50.5438 21.182 50.4462C21.182 50.495 21.2015 50.5438 21.2015 50.6023C21.2015 52.8474 19.7471 54.7118 17.7949 55.2486C19.1614 64.2679 25.4281 70.72 38.0199 70.72C50.6117 70.72 56.3805 64.7267 58.0497 56.2345C55.951 55.3463 54.399 53.3843 54.0379 51.0124V51.0026Z" fill="#B4B4B4"/>
<path d="M10.093 59.4159C8.0822 58.7424 6.64731 57.0634 6.64731 55.0917C6.64731 54.018 7.08656 53.0516 7.78936 52.261C7.17441 51.5972 6.78397 50.7675 6.78397 49.85C6.78397 48.4639 7.63318 47.2633 8.91189 46.5702C8.3067 45.9357 7.93578 45.1353 7.87721 44.2666C5.38813 45.5844 3.50423 46.4629 2.77215 44.6375C1.66915 41.8654 3.41639 34.691 7.93578 32.895C11.2546 31.5772 14.3391 31.2843 16.1839 32.319C16.8086 31.5772 17.814 31.0891 18.9658 31.0891C19.6393 31.0891 20.2641 31.2648 20.8009 31.5479C21.5037 29.3712 23.8073 27.7606 26.5697 27.7606C27.5166 27.7606 28.4048 27.9656 29.1955 28.2974C30.1814 27.1749 31.7431 26.4331 33.5099 26.4331C34.3396 26.4331 35.1302 26.599 35.833 26.8918C36.4968 26.6283 37.2289 26.4721 38.0098 26.4721C38.7906 26.4721 39.5227 26.6283 40.1865 26.8918C40.8893 26.599 41.6702 26.4331 42.5096 26.4331C44.2764 26.4331 45.8284 27.1749 46.824 28.2974C47.6245 27.9656 48.503 27.7606 49.4498 27.7606C52.2122 27.7606 54.5158 29.3712 55.2186 31.5479C55.7457 31.2551 56.3802 31.0891 57.0537 31.0891C58.2055 31.0891 59.2109 31.5772 59.8356 32.319C61.6805 31.2843 64.765 31.5772 68.0837 32.895C72.6031 34.691 74.3504 40.2451 73.2474 43.0172C72.525 44.8425 70.6314 44.6669 68.1423 43.8176C68.1423 43.8957 68.1618 43.9738 68.1618 44.0519C68.1618 45.0085 67.7616 45.8675 67.1076 46.5605C68.3766 47.2438 69.2355 48.4541 69.2355 49.8402C69.2355 50.7578 68.8549 51.5874 68.2301 52.2512C68.9329 53.0321 69.3722 54.0082 69.3722 55.0819C69.3722 57.0537 67.9373 58.7228 65.9265 59.4061C66.766 60.0991 67.3028 61.0558 67.3614 62.1197C72.7593 55.5603 76 47.1559 76 38C76 17.0136 58.9864 0 38 0C17.0136 0 0 17.0136 0 38C0 47.1559 3.24069 55.5603 8.63858 62.1197C8.69715 61.0558 9.22425 60.0991 10.0735 59.4061L10.093 59.4159Z" fill="#B4B4B4"/>
<path d="M35.9402 60.7129H40.1082C40.5572 60.7129 40.772 61.2693 40.4304 61.5621L38.3512 63.4167C38.1658 63.5826 37.8827 63.5826 37.6972 63.4167L35.6181 61.5621C35.2863 61.2595 35.4912 60.7129 35.9402 60.7129Z" fill="white"/>
<path d="M49.3524 60.7137C51.7999 60.7137 53.784 58.7296 53.784 56.2821C53.784 53.8346 51.7999 51.8506 49.3524 51.8506C46.905 51.8506 44.9209 53.8346 44.9209 56.2821C44.9209 58.7296 46.905 60.7137 49.3524 60.7137Z" fill="white"/>
<path d="M47.7996 56.0957C48.4088 56.0957 48.9026 55.6018 48.9026 54.9927C48.9026 54.3835 48.4088 53.8896 47.7996 53.8896C47.1904 53.8896 46.6966 54.3835 46.6966 54.9927C46.6966 55.6018 47.1904 56.0957 47.7996 56.0957Z" fill="#B4B4B4"/>
<path d="M26.6786 60.7137C29.1261 60.7137 31.1102 58.7296 31.1102 56.2821C31.1102 53.8346 29.1261 51.8506 26.6786 51.8506C24.2311 51.8506 22.2471 53.8346 22.2471 56.2821C22.2471 58.7296 24.2311 60.7137 26.6786 60.7137Z" fill="white"/>
<path d="M25.1258 56.0957C25.7349 56.0957 26.2288 55.6018 26.2288 54.9927C26.2288 54.3835 25.7349 53.8896 25.1258 53.8896C24.5166 53.8896 24.0228 54.3835 24.0228 54.9927C24.0228 55.6018 24.5166 56.0957 25.1258 56.0957Z" fill="#B4B4B4"/>
</svg>
