<svg width="76" height="76" viewBox="0 0 76 76" fill="none" xmlns="http://www.w3.org/2000/svg">
<circle cx="38" cy="38" r="38" fill="white"/>
<path d="M38 0C17.0136 0 0 17.0136 0 38C0 50.504 6.04213 61.5926 15.364 68.523C11.3522 63.8279 8.95094 57.4637 8.95094 49.5376C8.95094 43.0075 10.581 37.3948 13.402 32.8656C6.79373 27.458 10.9715 20.0103 12.4454 17.8043C12.7187 17.3943 13.1482 17.1503 13.607 17.1405C19.5613 17.0527 23.4755 20.4495 25.3106 22.5189C29.1467 20.8107 33.4513 19.9029 38 19.9029C42.5487 19.9029 46.8533 20.8009 50.6894 22.5189C52.5148 20.4495 56.4387 17.0527 62.393 17.1405C62.8518 17.1405 63.2813 17.3943 63.5546 17.8043C65.0285 20.0103 69.216 27.458 62.598 32.8656C65.4092 37.4046 67.0491 43.0172 67.0491 49.5376C67.0491 57.4637 64.6478 63.8279 60.636 68.523C69.9579 61.6023 76 50.504 76 38C76 17.0136 58.9864 0 38 0Z" fill="#FFAF78"/>
<path d="M62.7245 19.1327C63.4663 20.675 67.1072 29.1965 59.1421 31.4415C56.5847 32.1638 54.0761 29.9188 54.5349 27.3028C55.062 24.2964 56.8873 20.6555 62.3438 18.9766C62.5 18.9278 62.6659 18.9961 62.7342 19.1425L62.7245 19.1327Z" fill="#FFAF78"/>
<path d="M13.2655 19.1327C12.5236 20.675 8.88273 29.1965 16.8478 31.4415C19.4052 32.1638 21.9138 29.9188 21.455 27.3028C20.9279 24.2964 19.1026 20.6555 13.6462 18.9766C13.49 18.9278 13.324 18.9961 13.2557 19.1425L13.2655 19.1327Z" fill="#FFAF78"/>
<path d="M34.2123 52.0664H42.1872C42.6362 52.0664 42.8509 52.6228 42.5093 52.9156L38.5267 56.4589C38.3413 56.6248 38.0582 56.6248 37.8825 56.4589L33.9 52.9156C33.5681 52.613 33.7731 52.0664 34.2221 52.0664H34.2123Z" fill="#FFAF78"/>
<path d="M57.0154 52.3311C62.2083 53.4049 64.8536 55.9818 66.0835 57.729C66.4642 56.1965 66.7375 54.5762 66.8937 52.8778C62.3157 51.4722 57.0154 52.3311 57.0154 52.3311Z" fill="#FFAF78"/>
<path d="M62.7737 65.6156C63.8572 63.8976 64.7552 62.0039 65.4385 59.9443C61.7586 56.772 56.4681 55.7471 56.4681 55.7471C61.4169 59.1732 62.5297 63.4584 62.7737 65.6156Z" fill="#FFAF78"/>
<path d="M18.9762 52.3311C18.9762 52.3311 13.6759 51.4722 9.09795 52.8778C9.25412 54.5762 9.52743 56.1868 9.90812 57.729C11.1478 55.9915 13.7833 53.4049 18.9762 52.3311Z" fill="#FFAF78"/>
<path d="M19.524 55.7563C19.524 55.7563 14.2335 56.7813 10.5536 59.9536C11.2466 62.0132 12.1349 63.9069 13.2183 65.6248C13.4526 63.4676 14.5751 59.1825 19.524 55.7563Z" fill="#FFAF78"/>
<path d="M39.1323 30.4741V26.8332C41.4555 27.0577 42.6366 27.9264 42.6756 27.9557C42.8806 28.1217 43.1344 28.1998 43.3784 28.1998C43.7103 28.1998 44.0422 28.0533 44.2667 27.7703C44.6571 27.2822 44.579 26.5697 44.091 26.1695C44.0129 26.1109 42.3438 24.8127 39.1323 24.5491V23.7585C42.5585 23.9537 44.3057 24.9493 44.3448 24.9786C44.5302 25.0957 44.7352 25.1445 44.9402 25.1445C45.3209 25.1445 45.6918 24.9591 45.9066 24.6077C46.2384 24.0708 46.0725 23.3778 45.5454 23.0459C45.4478 22.9873 43.2906 21.7086 39.1421 21.4939V19.9126C38.7614 19.9028 38.3905 19.8833 38.0098 19.8833C37.6291 19.8833 37.2484 19.8931 36.8775 19.9126V21.4939C32.7193 21.7086 30.5621 22.9873 30.4742 23.0459C29.9471 23.3778 29.7812 24.0708 30.1131 24.5979C30.4352 25.1348 31.138 25.3007 31.6749 24.9786C31.6944 24.9688 33.4416 23.9537 36.8873 23.7585V24.5491C33.6759 24.8127 32.0067 26.1109 31.9286 26.1695C31.4406 26.5599 31.3625 27.2627 31.7529 27.7508C32.1336 28.2388 32.8462 28.3266 33.344 27.946C33.3538 27.9362 34.5446 27.0479 36.8873 26.8234V30.4643C36.8873 31.0891 37.3949 31.5966 38.0196 31.5966C38.6443 31.5966 39.1519 31.0891 39.1519 30.4643L39.1323 30.4741Z" fill="#FFAF78"/>
<path d="M49.3339 49.0613C51.7814 49.0613 53.7654 47.0773 53.7654 44.6298C53.7654 42.1823 51.7814 40.1982 49.3339 40.1982C46.8864 40.1982 44.9023 42.1823 44.9023 44.6298C44.9023 47.0773 46.8864 49.0613 49.3339 49.0613Z" fill="#FFAF78"/>
<path d="M47.781 44.4433C48.3902 44.4433 48.884 43.9495 48.884 43.3403C48.884 42.7311 48.3902 42.2373 47.781 42.2373C47.1719 42.2373 46.678 42.7311 46.678 43.3403C46.678 43.9495 47.1719 44.4433 47.781 44.4433Z" fill="white"/>
<path d="M26.6574 49.0613C29.1049 49.0613 31.089 47.0773 31.089 44.6298C31.089 42.1823 29.1049 40.1982 26.6574 40.1982C24.2099 40.1982 22.2259 42.1823 22.2259 44.6298C22.2259 47.0773 24.2099 49.0613 26.6574 49.0613Z" fill="#FFAF78"/>
<path d="M25.0953 44.4433C25.7045 44.4433 26.1983 43.9495 26.1983 43.3403C26.1983 42.7311 25.7045 42.2373 25.0953 42.2373C24.4861 42.2373 23.9923 42.7311 23.9923 43.3403C23.9923 43.9495 24.4861 44.4433 25.0953 44.4433Z" fill="white"/>
</svg>
