<svg width="76" height="76" viewBox="0 0 76 76" fill="none" xmlns="http://www.w3.org/2000/svg">
<circle cx="38" cy="38" r="38" fill="white"/>
<path d="M12.2795 43.2222C12.8163 28.1901 24.1392 20.1176 38 20.1176C51.8608 20.1176 63.1837 28.1901 63.7205 43.2222C68.2106 46.5312 71.0902 50.9823 71.5001 55.9409C74.3699 50.6016 76 44.4911 76 38C76 17.0136 58.9864 0 38 0C17.0136 0 0 17.0234 0 38C0 44.4911 1.6301 50.5918 4.49987 55.9409C4.90984 50.9823 7.78937 46.5409 12.2795 43.2222Z" fill="#A4DB97"/>
<path d="M54.2133 54.5155L50.7091 56.7606C49.8013 57.3462 48.6397 57.3658 47.7027 56.8289C44.745 55.1402 41.4067 54.252 38.0001 54.252C34.5935 54.252 31.2552 55.1402 28.2976 56.8289C27.3605 57.3658 26.1989 57.3365 25.2911 56.7606L21.7869 54.5155" stroke="#A4DB97" stroke-width="2" stroke-linecap="round" stroke-linejoin="round"/>
<path d="M49.3339 49.3494C51.7814 49.3494 53.7654 47.3653 53.7654 44.9179C53.7654 42.4704 51.7814 40.4863 49.3339 40.4863C46.8864 40.4863 44.9023 42.4704 44.9023 44.9179C44.9023 47.3653 46.8864 49.3494 49.3339 49.3494Z" fill="#A4DB97"/>
<path d="M47.781 44.7314C48.3902 44.7314 48.884 44.2375 48.884 43.6283C48.884 43.0192 48.3902 42.5254 47.781 42.5254C47.1719 42.5254 46.678 43.0192 46.678 43.6283C46.678 44.2375 47.1719 44.7314 47.781 44.7314Z" fill="white"/>
<path d="M26.6564 49.3494C29.1038 49.3494 31.0879 47.3653 31.0879 44.9179C31.0879 42.4704 29.1038 40.4863 26.6564 40.4863C24.2089 40.4863 22.2248 42.4704 22.2248 44.9179C22.2248 47.3653 24.2089 49.3494 26.6564 49.3494Z" fill="#A4DB97"/>
<path d="M25.0944 44.7314C25.7036 44.7314 26.1974 44.2375 26.1974 43.6283C26.1974 43.0192 25.7036 42.5254 25.0944 42.5254C24.4852 42.5254 23.9914 43.0192 23.9914 43.6283C23.9914 44.2375 24.4852 44.7314 25.0944 44.7314Z" fill="white"/>
</svg>
