<svg width="96" height="96" viewBox="0 0 96 96" fill="none" xmlns="http://www.w3.org/2000/svg">
<g clip-path="url(#clip0_2175_70002)">
<path d="M93.039 48.2022C95.2266 46.3482 94.1827 41.5299 90.7072 37.4403C87.2318 33.3507 82.641 31.5384 80.4533 33.3925C78.2656 35.2465 79.3096 40.0648 82.785 44.1544C86.2605 48.244 90.8513 50.0563 93.039 48.2022Z" fill="#4E82EA"/>
<path d="M49.2866 44.1466C52.762 40.057 53.806 35.2387 51.6183 33.3847C49.4307 31.5306 44.8398 33.3429 41.3644 37.4325C37.8889 41.5221 36.845 46.3404 39.0326 48.1945C41.2203 50.0485 45.8112 48.2362 49.2866 44.1466Z" fill="#4E82EA"/>
<path d="M46.731 44.0188C46.826 46.1067 47.3012 48.0681 48.0615 49.8397H84.0167C84.872 47.8467 85.3472 45.6322 85.3472 43.2595C85.3472 39.6215 84.2702 36.2365 82.4011 33.3577C82.2111 33.0413 82.1477 32.6617 82.2744 32.3137C82.9713 30.289 83.2564 28.1378 83.0664 25.8601C82.4011 17.7931 75.5585 11.3078 67.1637 10.77C57.2166 10.1373 48.9485 17.7298 48.9485 27.1888C48.9485 28.9604 49.2336 30.7003 49.8038 32.3137C49.9305 32.6617 49.8672 33.0413 49.6771 33.3577C47.6814 36.4263 46.5726 40.096 46.731 44.0188Z" fill="#7DA2FF"/>
<path d="M74.3866 7.6692C75.4637 4.88529 74.7984 2.95553 72.8661 2.22792C70.9337 1.5003 69.1597 2.51264 68.0826 5.29655C67.0055 8.08046 66.9422 11.8451 68.8745 12.5727C70.8069 13.3003 73.2779 10.4531 74.3549 7.6692H74.3866Z" fill="#7DA2FF"/>
<path d="M75.9394 12.4461C77.5867 11.5286 78.0618 10.3265 77.4283 9.18762C76.7947 8.04875 75.5276 7.8273 73.8803 8.77636C72.233 9.72542 70.6807 11.497 71.3143 12.6359C71.9479 13.7747 74.3238 13.3635 75.9711 12.4461H75.9394Z" fill="#7DA2FF"/>
<path d="M74.0062 26.5553C75.7558 26.5553 77.1741 25.139 77.1741 23.3918C77.1741 21.6446 75.7558 20.2283 74.0062 20.2283C72.2567 20.2283 70.8384 21.6446 70.8384 23.3918C70.8384 25.139 72.2567 26.5553 74.0062 26.5553Z" fill="#280611"/>
<path d="M72.803 23.0432C73.2403 23.0432 73.5949 22.6891 73.5949 22.2523C73.5949 21.8155 73.2403 21.4614 72.803 21.4614C72.3656 21.4614 72.011 21.8155 72.011 22.2523C72.011 22.6891 72.3656 23.0432 72.803 23.0432Z" fill="white"/>
<path d="M58.1361 26.5553C59.8857 26.5553 61.304 25.139 61.304 23.3918C61.304 21.6446 59.8857 20.2283 58.1361 20.2283C56.3866 20.2283 54.9683 21.6446 54.9683 23.3918C54.9683 25.139 56.3866 26.5553 58.1361 26.5553Z" fill="#280611"/>
<path d="M56.9634 23.0432C57.4007 23.0432 57.7553 22.6891 57.7553 22.2523C57.7553 21.8155 57.4007 21.4614 56.9634 21.4614C56.526 21.4614 56.1714 21.8155 56.1714 22.2523C56.1714 22.6891 56.526 23.0432 56.9634 23.0432Z" fill="white"/>
<path d="M66.0547 27.6311C64.439 27.6311 63.1086 28.5485 62.8551 29.7507C62.7918 29.9721 63.0135 30.1936 63.2986 30.1936H68.8107C69.0958 30.1936 69.3176 29.9721 69.2542 29.7507C69.0008 28.5485 67.6386 27.6311 66.0547 27.6311Z" fill="#280611"/>
<path d="M76.6673 28.0737L75.8436 26.5552L75.02 28.0737C75.02 28.0737 74.8616 28.39 74.8616 28.5798C74.8616 29.1176 75.3051 29.5289 75.8119 29.5289C76.3188 29.5289 76.7623 29.086 76.7623 28.5798C76.7623 28.39 76.6989 28.2318 76.6039 28.0737H76.6673Z" fill="white"/>
<path d="M65.1358 38.4817H34.2175L41.4719 88.7186C41.9154 91.8189 44.6081 94.1283 47.7443 94.1283H82.5908C85.7269 94.1283 88.4196 91.8189 88.8631 88.7186L96.1175 38.4817H65.1992H65.1358Z" fill="#FFB734"/>
<path d="M33.9009 36.3625C31.3032 35.6032 28.5155 36.7105 27.1534 39.0515L14.4819 60.6585L1.81047 82.2654C0.448286 84.6064 0.828429 87.5485 2.76082 89.4466L7.51262 94.097L23.8905 66.1314L40.2683 38.1657L33.9009 36.2992V36.3625Z" fill="#FFB734"/>
<path d="M8.1461 71.5415L6.02363 70.3078C3.20424 68.6627 2.25388 65.0563 3.90117 62.2408L7.32246 56.4831L10.6804 50.6622C12.3277 47.8467 15.939 46.8976 18.7584 48.5426L20.8809 49.7764" stroke="#FFB734" stroke-width="6" stroke-miterlimit="10"/>
<path d="M67.766 50.377C67.766 48.8919 66.5604 47.688 65.0733 47.688C63.5862 47.688 62.3806 48.8919 62.3806 50.377V82.6451C62.3806 84.1301 63.5862 85.3341 65.0733 85.3341C66.5604 85.3341 67.766 84.1301 67.766 82.6451V50.377Z" fill="#FFD367"/>
<path d="M52.8971 50.1945C52.728 48.719 51.3932 47.6598 49.9157 47.8287C48.4382 47.9976 47.3776 49.3306 47.5467 50.8061L51.2214 82.8648C51.3905 84.3403 52.7253 85.3995 54.2028 85.2306C55.6803 85.0617 56.7409 83.7287 56.5718 82.2532L52.8971 50.1945Z" fill="#FFD367"/>
<path d="M73.7046 82.2417C73.5355 83.7172 74.5961 85.0502 76.0736 85.2191C77.5511 85.388 78.8859 84.3288 79.055 82.8533L82.7297 50.7946C82.8988 49.3192 81.8381 47.9861 80.3607 47.8173C78.8832 47.6484 77.5484 48.7076 77.3792 50.183L73.7046 82.2417Z" fill="#FFD367"/>
</g>
<defs>
<clipPath id="clip0_2175_70002">
<rect width="96" height="96" fill="white"/>
</clipPath>
</defs>
</svg>
