<svg width="96" height="96" viewBox="0 0 96 96" fill="none" xmlns="http://www.w3.org/2000/svg">
<g clip-path="url(#clip0_1414_21756)">
<path d="M93.2432 83.4259C96.9079 80.3286 95.1557 72.2756 89.3297 65.4389C83.5036 58.6022 75.8099 55.5708 72.1452 58.6681C68.4806 61.7653 70.2327 69.8183 76.0588 76.655C81.8848 83.4917 89.5785 86.5231 93.2432 83.4259Z" fill="#4E82EA"/>
<path d="M19.9413 76.5931C25.7673 69.7564 27.5195 61.7034 23.8548 58.6061C20.1901 55.5089 12.4964 58.5403 6.67033 65.377C0.844285 72.2136 -0.90786 80.2667 2.75681 83.3639C6.42148 86.4612 14.1152 83.4297 19.9413 76.5931Z" fill="#4E82EA"/>
<path d="M15.6472 76.3886C15.7963 79.891 16.601 83.1263 17.8826 86.0945H78.1175C79.5481 82.7702 80.3528 79.06 80.3528 75.0826C80.3528 68.9979 78.5347 63.3287 75.4053 58.55C75.0774 58.0157 74.988 57.3924 75.1967 56.7988C76.3292 53.4447 76.8359 49.7939 76.5081 45.9947C75.4053 32.5192 63.9305 21.6854 49.8926 20.795C33.2319 19.7561 19.3728 32.4302 19.3728 48.2208C19.3728 51.2186 19.8795 54.068 20.7736 56.7691C20.9823 57.3627 20.8929 57.986 20.565 58.5203C17.2269 63.6552 15.379 69.7696 15.6472 76.3293V76.3886Z" fill="#7DA2FF"/>
<path d="M61.9894 15.6608C63.7776 11.0008 62.7047 7.79522 59.456 6.57827C56.2073 5.36133 53.2566 7.0235 51.4684 11.6835C49.6801 16.3435 49.5609 22.6063 52.8096 23.853C56.0583 25.0996 60.2011 20.3209 61.9894 15.6608Z" fill="#7DA2FF"/>
<path d="M64.5468 23.5869C67.3186 22.0434 68.0935 20.0546 67.0206 18.1549C65.9476 16.2552 63.8315 15.899 61.0597 17.4425C58.2878 18.986 55.6948 22.0137 56.7678 23.8838C57.8408 25.7538 61.8048 25.1008 64.5766 23.5573L64.5468 23.5869Z" fill="#7DA2FF"/>
<path d="M61.3091 47.2088C64.2391 47.2088 66.6143 44.8433 66.6143 41.9252C66.6143 39.0072 64.2391 36.6416 61.3091 36.6416C58.3791 36.6416 56.0039 39.0072 56.0039 41.9252C56.0039 44.8433 58.3791 47.2088 61.3091 47.2088Z" fill="#280611"/>
<path d="M59.3187 41.3033C60.043 41.3033 60.6301 40.7185 60.6301 39.9972C60.6301 39.2759 60.043 38.6912 59.3187 38.6912C58.5945 38.6912 58.0073 39.2759 58.0073 39.9972C58.0073 40.7185 58.5945 41.3033 59.3187 41.3033Z" fill="white"/>
<path d="M34.7561 47.2084C37.6861 47.2084 40.0613 44.8428 40.0613 41.9247C40.0613 39.0067 37.6861 36.6411 34.7561 36.6411C31.8261 36.6411 29.4509 39.0067 29.4509 41.9247C29.4509 44.8428 31.8261 47.2084 34.7561 47.2084Z" fill="#280611"/>
<path d="M32.7658 41.303C33.49 41.303 34.0772 40.7183 34.0772 39.997C34.0772 39.2757 33.49 38.6909 32.7658 38.6909C32.0415 38.6909 31.4543 39.2757 31.4543 39.997C31.4543 40.7183 32.0415 41.303 32.7658 41.303Z" fill="white"/>
<path d="M47.982 48.9956C45.2698 48.9956 43.0345 50.5391 42.5874 52.5279C42.498 52.9138 42.8854 53.27 43.3325 53.27H52.6017C53.0786 53.27 53.4362 52.9138 53.3468 52.5279C52.8998 50.5095 50.6644 48.9956 47.9522 48.9956H47.982Z" fill="#280611"/>
<path d="M65.8074 49.7666H65.8372L64.4364 47.2139L63.0356 49.7666H63.0653C62.9163 50.0041 62.7971 50.2712 62.7971 50.5978C62.7971 51.4883 63.5124 52.2007 64.4065 52.2007C65.3007 52.2007 66.016 51.4883 66.016 50.5978C66.016 50.3009 65.8968 50.0338 65.7478 49.7666H65.8074Z" fill="white"/>
</g>
<defs>
<clipPath id="clip0_1414_21756">
<rect width="96" height="96" fill="white"/>
</clipPath>
</defs>
</svg>
