<svg width="96" height="96" viewBox="0 0 96 96" fill="none" xmlns="http://www.w3.org/2000/svg">
<path d="M68.1424 4.17546C65.8791 3.20119 62.6816 3.75791 59.3405 5.49769C57.4364 6.47196 54.9934 5.84565 53.9156 4.21026C52.1911 1.60059 49.8919 0 47.3411 0C44.7904 0 42.4911 1.60059 40.7666 4.21026C39.6888 5.84565 37.2459 6.47196 35.3418 5.49769C32.0006 3.79271 28.8391 3.20119 26.5398 4.17546C21.9054 6.1936 22.7676 13.8834 28.5158 21.3644C34.264 28.8455 42.6707 33.2645 47.3411 31.2464C51.9756 33.2645 60.4183 28.8455 66.1665 21.3644C71.9147 13.8834 72.8128 6.1936 68.1424 4.17546Z" fill="#FFD15F"/>
<path d="M91.3549 71.6275C91.3549 95.4437 71.9629 96 48.0001 96C24.0373 96 4.64526 95.4437 4.64526 71.6275C4.64526 47.8113 24.0373 22.5 48.0001 22.5C71.9629 22.5 91.3549 47.8113 91.3549 71.6275Z" fill="#FFD15F"/>
<path d="M64.1472 26.25C64.1472 26.25 57.3212 29.1728 47.4774 29.2772C37.6336 29.1728 30.8076 26.25 30.8076 26.25" stroke="#E87915" stroke-width="8" stroke-miterlimit="10" stroke-linecap="round"/>
<path d="M41.0908 69.1647C41.0908 69.1647 44.7194 72.1223 48.1683 72.1223C54.5632 72.1223 54.8146 66.555 54.8146 66.555C54.8146 66.555 55.5691 60.7789 48.8149 60.7789H47.1264C40.3723 60.7789 41.1267 55.0029 41.1267 55.0029C41.1267 55.0029 41.5579 48.9485 47.7731 49.4356C51.4376 49.714 54.8506 52.3932 54.8506 52.3932" stroke="white" stroke-width="6" stroke-miterlimit="10" stroke-linecap="round"/>
<path d="M47.77 49.4345V44.25" stroke="white" stroke-width="6" stroke-miterlimit="10" stroke-linecap="round"/>
<path d="M47.9961 77.3388V72.1543" stroke="white" stroke-width="6" stroke-miterlimit="10" stroke-linecap="round"/>
</svg>
